<svg version="1.2" xmlns="http://www.w3.org/2000/svg" viewBox="0 0 512 512" width="512" height="512">
	<title>file</title>
	<style>
		.s0 { fill: #000000 } 
	</style>
	<path id="Path 0" fill-rule="evenodd" class="s0" d="m119.5 8.1c90.1-0.1 94.2 0 98 1.8 2.2 1 5.8 3.8 8 6.3 2.2 2.5 4.6 6.2 5.2 8.4 1 3 1.3 24 1.3 87.4 0 62-0.3 84.5-1.2 87.5-0.8 2.4-3.2 6-6.3 9-3 3.1-6.6 5.5-9 6.3-2.8 0.8-16.2 1.2-87.5 1.2v32h88v34.5l6.3-0.9c3.4-0.5 18.6-0.9 33.7-0.9 15.1 0 30.3 0.4 40 1.8v-34.5h88v-32h-41.8c-29.5 0-42.9-0.4-45.7-1.2-2.4-0.8-6-3.2-9-6.3-3.1-3-5.5-6.6-6.3-9-0.9-3-1.2-25.5-1.2-87.5 0-63.4 0.3-84.4 1.3-87.4 0.6-2.2 2.8-5.8 4.8-8 2-2.3 5.5-5.1 11.9-8.6h93.8c90 0 93.9 0 97.7 1.9 2.2 1 5.7 3.7 7.7 6 2.1 2.2 4.5 5.8 5.3 7.8 1.3 3.3 1.5 14.8 1.5 87.8 0 62.3-0.3 85-1.2 88-0.8 2.4-3.2 6-6.3 9-3 3.1-6.6 5.5-9 6.3-2.8 0.8-16.2 1.2-87.5 1.2v48h-88v11c0 10.3 0.1 11 2 11 1.1 0 6.2 1.4 11.2 3.1 5.1 1.6 12 4.5 15.3 6.2 3.3 1.7 8.5 5.6 11.5 8.7 3.6 3.5 6 7 6.8 9.5 0.8 2.7 1.2 14.4 1.2 70.5h32v-21.8c0-13.9 0.5-23.1 1.2-25.7 0.8-2.4 3.2-6 6.3-9 3-3.1 6.6-5.5 9-6.3 2.8-0.8 14.8-1.2 39.5-1.2 25.4 0 36.6 0.4 39.4 1.3 2.2 0.6 5.8 2.8 8 4.8 2.3 1.9 5.1 5.7 6.3 8.2 2.3 4.7 2.3 4.8 2.3 57 0 37.6-0.4 53.3-1.2 56.2-0.8 2.4-3.2 6-6.3 9-3 3.1-6.6 5.5-9 6.3-2.8 0.8-14.8 1.2-39.5 1.2-24.7 0-36.7-0.4-39.5-1.2-2.4-0.8-6-3.2-9-6.3-3.1-3-5.5-6.6-6.3-9-0.7-2.6-1.2-11.8-1.2-47.5h-32v33.3c0 18.8-0.4 34.8-1 37-0.6 2.1-3.1 6-5.8 9-3.1 3.3-7.7 6.7-12.8 9.4-4.3 2.3-12.6 5.5-18.4 7.2-5.8 1.7-18.1 4.3-27.5 5.6-14 2.1-20.8 2.5-38.5 2.5-17.7 0-24.4-0.4-38-2.4-9.1-1.4-20-3.4-24.3-4.6-4.2-1.1-10.1-2.9-13-4.1-2.8-1.1-7.9-3.5-11.1-5.2-3.2-1.8-8.1-5.6-10.8-8.4-2.7-3-5.2-6.9-5.8-9.1-0.6-2.1-1-18.1-1-70.2h-32v21.8c0 13.9-0.5 23.1-1.2 25.7-0.8 2.4-3.2 6-6.3 9-3 3.1-6.6 5.5-9 6.3-2.8 0.8-14.8 1.2-39.5 1.2-25.4 0-36.6-0.4-39.4-1.3-2.2-0.6-5.8-2.8-8-4.8-2.3-1.9-5.1-5.7-6.4-8.2-2.2-4.7-2.2-4.8-2.2-56.9 0-37.7 0.4-53.4 1.2-56.3 0.8-2.4 3.2-6 6.3-9 3-3.1 6.6-5.5 9-6.3 2.8-0.8 14.8-1.2 39.5-1.2 24.7 0 36.7 0.4 39.5 1.2 2.4 0.8 6 3.2 9 6.3 3.1 3 5.5 6.6 6.3 9 0.7 2.6 1.2 11.8 1.2 47.5h32v-33.3c0-21.6 0.4-34.6 1.1-37.2q1.2-4 6.8-9.5c3.1-3.1 8.3-7 11.6-8.7 3.3-1.7 10.2-4.6 15.2-6.2 5.1-1.7 10.2-3.1 11.3-3.1 1.9 0 2-0.7 2-22h-88v-48h-41.8c-30.2 0-42.8-0.4-45.6-1.3-2.2-0.6-5.8-2.8-8-4.8-2.3-1.9-5.1-5.7-8.6-12.9v-84.3c0-63.9 0.3-85.2 1.3-88.1 0.6-2.2 3-5.9 5.2-8.3 2.2-2.3 5.6-5.1 7.5-6.2 3.4-1.9 5.9-2 97.5-2zm-93 18.4c-2.4 2.4-2.4 2.6-2.5 24v21.5h192v-43l-5-5h-182.1zm269.6 2.5l-0.1 166 5 5h182.1l4.9-5v-166l-5-5h-182.1zm-272.1 166.1l5 5h182.1l4.9-5v-107h-192zm193.3 103.5c-0.9 0.4-1.3 3.6-1.3 11v10.5h-16c0-14.3-0.4-18-1-18-0.5 0-4.9 1.4-9.7 3.2-4.8 1.7-11.1 4.6-14 6.5-2.9 1.8-5.8 4.5-6.5 5.8-1 2-1 3 0 5 0.7 1.4 3.1 3.8 5.5 5.4 2.3 1.6 7.2 4.1 10.7 5.5 3.6 1.5 10.1 3.6 14.5 4.6 4.4 1.1 12.8 2.8 18.5 3.7 8 1.3 17.1 1.7 38 1.7 21 0 30-0.4 38-1.7 5.8-0.9 14.1-2.6 18.5-3.7 4.4-1 11-3.1 14.5-4.6 3.6-1.4 8.4-3.9 10.8-5.5 2.3-1.6 4.8-4 5.5-5.4 1-2 1-3 0-5-0.7-1.3-3.6-4-6.5-5.8-2.9-1.9-9.2-4.8-14-6.5-4.8-1.8-9.2-3.2-9.8-3.2-0.6 0-1 3.7-1 9v9h-16l-0.5-21.5c-7.7-1-20.3-1.6-33-1.8-12.6-0.3-27.7-0.1-33.5 0.4-5.7 0.5-11 1.2-11.7 1.4zm-193.2 42.4l-0.1 102.1 5 5h70.1l4.9-5v-102l-5-5h-70.1zm384 0l-0.1 102.1 5 5h70.1l4.9-5v-102l-5-5h-70zm-240.1 29.6c5.1 4.7 9 7.2 12 8.7 3 1.4 8.4 3.6 12 4.7 3.5 1.2 11 3 16.5 4.1 5.5 1 15.8 2.4 23 3 7.1 0.6 18.1 1 24.5 1 6.3 0 17.3-0.4 24.5-1 7.1-0.6 17.5-2 23-3 5.5-1.1 12.9-2.9 16.5-4.1 3.5-1.1 8.9-3.3 12-4.7 3-1.5 6.9-4 8.7-5.7l3.2-3 0.1-27.5c-7.8 3.9-14 6.3-18.8 8-4.8 1.6-13.9 3.8-20.2 4.9-6.4 1.2-16.9 2.5-23.5 3.1-6.6 0.5-18.1 1-25.5 1-7.5 0-18.9-0.5-25.5-1-6.6-0.6-16.1-1.7-21-2.6-5-0.8-13.1-2.6-18-4-5-1.4-12.3-4.1-16.4-5.9l-7.3-3.4zm0 48c5 4.7 8.9 7.2 11.9 8.7 3 1.5 8.4 3.6 12 4.8 3.6 1.1 11 3 16.5 4 5.5 1.1 15.8 2.4 23 3 7.1 0.6 18.2 1.1 24.5 1.1 6.3 0 17.3-0.5 24.5-1.1 7.1-0.6 17.5-1.9 23-3 5.5-1 12.9-2.9 16.5-4 3.6-1.2 9-3.3 12-4.8 3-1.4 6.9-4 8.7-5.6l3.2-3.1 0.1-27.5c-7.8 3.9-14 6.4-18.8 8-4.8 1.6-13.9 3.9-20.2 5-6.3 1.1-16.9 2.4-23.5 3-6.6 0.6-18.1 1-25.5 1-7.4 0-18.9-0.4-25.5-1-6.6-0.6-16.1-1.7-21-2.5-5-0.9-13.1-2.7-18-4.1-5-1.4-12.3-4-16.4-5.9l-7.3-3.3zm0 48c5 4.7 8.9 7.2 11.9 8.6 3 1.5 8.4 3.6 12 4.8 3.6 1.2 11 3 16.5 4 5.5 1.1 15.8 2.4 23 3 7.1 0.6 18.2 1.1 24.5 1.1 6.3 0 17.3-0.5 24.5-1.1 7.1-0.6 17.5-1.9 23-3 5.5-1 12.9-2.8 16.5-4 3.6-1.2 9-3.3 12-4.8 3-1.4 6.9-3.9 8.7-5.6l3.2-3 0.1-27.5c-7.8 3.9-13.9 6.3-18.8 7.9-4.8 1.6-13.9 3.9-20.2 5-6.3 1.1-16.9 2.5-23.5 3-6.6 0.6-18.1 1.1-25.5 1.1-7.4 0-18.9-0.5-25.5-1.1-6.6-0.5-16.1-1.7-21-2.5-5-0.8-13.1-2.6-18-4-5-1.4-12.3-4.1-16.4-5.9l-7.3-3.4zm-128.1-426.5h16v16h-16zm32 0h16v16h-16zm32 0h16v16h-16zm264 0h48v32h32v32h16v16h-144v-16h16v-48h32zm16 64h16v-48h-16zm-32 0h16v-32h-16zm64 0h16v-16h-16zm-376 0h48v48h-48zm16 32h16v-16h-16zm48-32h96v16h-96zm0 32h96v16h-96zm216 0h32v16h-32zm48 0h96v16h-96zm-328 32h16v16h-16zm32 0h128v16h-128zm248 0h144v16h-144zm-280 184h48v16h-48zm384 0h48v16h-48zm-384 32h48v16h-48zm384 0h48v16h-48zm-384 32h48v16h-48zm384 0h48v16h-48z"/>
</svg>