<svg version="1.2" xmlns="http://www.w3.org/2000/svg" viewBox="0 0 512 512" width="512" height="512">
	<title>file</title>
	<style>
		.s0 { fill: #000000 } 
	</style>
	<path id="Path 0" fill-rule="evenodd" class="s0" d="m18.5 0h160.5l4.8 2.4c2.6 1.3 5.9 3.7 7.4 5.3 1.5 1.5 3.6 4.8 4.7 7.3 1.9 4.2 2.1 6.5 2.1 59h72.5l50-34.7c27.5-19 52.4-35.7 55.3-37 3.8-1.7 7-2.3 12.2-2.3 5.4 0 8.3 0.6 12.8 2.6 3.1 1.4 29.4 18.9 111.2 75.4v38h-17v67l3.7 1.9c2.1 1.1 5 3.2 6.4 4.8 1.5 1.5 3.5 4.4 4.5 6.3 1.6 2.9 1.9 6.2 2.4 35l-115.5 0.5-0.3 32.7c-0.1 25.6 0.1 32.9 1 33.2 0.7 0.2 6 1.3 11.8 2.3 5.8 1.1 14.1 3.5 18.5 5.2 4.4 1.8 11.4 5.3 15.5 7.7 4.1 2.5 10.5 7 14.3 10.2 3.7 3.1 9.4 8.8 12.7 12.7 3.2 3.9 7.7 9.9 9.8 13.5 2.2 3.6 5.4 9.9 7.1 14 1.8 4.1 4.1 10.9 5.2 15 1.5 5.4 2.2 11.8 2.6 23 0.4 12.9 0.2 17.1-1.5 25-1.1 5.2-3.3 13.1-5 17.5-1.7 4.4-5.7 12.2-8.9 17.3-3.2 5.1-8.5 12.3-11.9 16-3.3 3.7-9.8 9.6-14.5 13.1-4.6 3.5-13.1 8.7-18.9 11.4-6.5 3.1-14.9 6.1-22 7.9-9.5 2.3-13.7 2.8-24 2.8-10.4 0-14.5-0.5-24-2.9-6.3-1.5-15.6-4.7-20.5-7-4.9-2.3-11.7-6.1-15-8.3-3.3-2.3-8.7-6.4-11.9-9.2-3.2-2.8-8.8-8.7-12.3-13.1-3.5-4.4-8.4-12.1-11-17-2.5-5-5.7-12.1-7-16-1.3-3.9-3-10.8-3.8-15.5-0.9-4.7-1.5-13-1.5-18.5 0.1-5.5 0.6-13.3 2.5-24.5h-85.5l-0.3 50.2c-0.2 49-0.3 50.4-2.4 55.8-1.2 3.1-4.5 8.1-7.5 11.4-2.9 3.2-6.9 6.9-8.8 8.1-1.9 1.1-6 3.1-9 4.3-5.5 2.2-5.6 2.2-137 2.2l-7.3-3.3c-4.2-1.9-9.4-5.3-12.5-8.2-3.6-3.4-6.6-7.4-12.7-19.9l-0.3-122c-0.2-90.1 0-123.5 0.8-127.6 0.7-3 2.6-8.2 4.4-11.4 1.7-3.3 5.3-7.9 8.1-10.4 2.7-2.4 6.7-5.3 8.7-6.3 2.1-1.1 6.4-2.6 9.5-3.4 3.9-1 10.6-1.5 34.3-1.5v-66h-23.3c-21.2 0-23.6-0.2-27.7-2.1-2.5-1.1-5.8-3.2-7.3-4.7-1.6-1.5-4-4.8-7.7-12.2v-46.3c0.1-33.3 0.4-47.2 1.3-49.7 0.7-2 2.3-5.2 3.7-7.3 1.5-2.1 5-5 8-6.7zm-1.5 65.5c0 27.6 0.4 45.2 1 46.5 0.6 1.1 2.5 2.4 4.3 3 1.9 0.6 14.5 1 29.7 1h26.5c24.8 24.8 32.7 32 33.6 32 0.9 0 2.1-0.6 2.8-1.3 0.8-0.8 1.2-5.7 1.2-16l-0.1-14.7c52.8 0 58.6-0.3 61-1.5 1.7-0.9 3.5-2.7 4-4 0.7-1.6 1-18.9 1-44.5 0-33.4-0.2-42.6-1.3-44.8-0.8-1.5-2.1-3.1-3-3.5-0.9-0.4-36.5-0.7-79.2-0.7-76.1 0-77.5 0-79.5 2-1.9 1.9-2 3.3-2 46.5zm303.3-6l-39.2 27-0.1 12.5h214v-12.5c-73.8-51.2-96.7-66.8-98.4-67.7-1.8-1.1-5.3-1.8-8.7-1.8-5.5 0-6.2 0.3-17.1 7.7-6.3 4.3-29 19.9-50.5 34.8zm-122.3 41.7c0 5.7-0.5 12-1.2 14.2-0.7 2.1-2.8 5.7-4.8 7.9-1.9 2.2-5.7 5.1-8.5 6.3-4.7 2.2-6 2.4-28.2 2.4h-23.3c0 13.9-0.5 18.3-1.5 20.7-0.9 2.1-2.6 4.8-3.8 6.2-1.2 1.3-4 3.2-6.2 4.2-2.2 1-5.9 1.8-8.2 1.9-2.3 0-5.9-0.7-8-1.6-2.1-0.9-7.7-5.5-12.5-10.3l-8.8-8.6v53.5c70.1 0 78.7 0.3 83.3 1.5 3.2 0.8 7.5 2.4 9.7 3.5 2.2 1.1 5.9 3.7 8.2 5.7 2.3 2.1 5.4 5.6 6.9 7.8 1.5 2.2 3.7 6.8 4.8 10.2 2.1 6.1 2.1 7.8 2.1 71.3v65h91c4.9-9.7 8.5-15.7 11.1-19.5 2.7-3.9 8.6-10.7 13.1-15.1 4.6-4.4 11.3-10 14.8-12.4 3.6-2.4 10.1-6.1 14.5-8.2 4.4-2.1 11.9-4.9 16.5-6.2 4.7-1.3 11.4-2.8 14.8-3.3l6.3-0.8-0.1-66.5h-116c0-22.4 0.5-28.1 1.6-31.5 0.8-2.8 2.6-6.5 4-8.3 1.3-1.8 4.5-4.4 6.9-5.7l4.5-2.5v-67l-16.5-0.5v-24.5h-66.5zm99.6 80.2l16.5 0.5v-66h-17.1zm33 0l32.5 0.5v-66h-33zm49.5 0.5h16v-66h-16zm33 0h33v-66h-33zm49.5-0.5l16.5 0.5v-66h-17zm-180.3 20.4c-0.7 0.9-1.2 4.2-1.2 7.4v5.7h214c0.1-10-0.4-12.1-1.9-14l-1.9-2.5c-174.6-0.4-204.3-0.1-205.7 0.7-1.1 0.6-2.6 1.8-3.3 2.7zm-252.2 15.9c-2.9 1.5-6.4 4.1-7.6 5.7-1.3 1.7-3 4.7-3.9 6.8-1.1 2.8-1.5 7.4-1.5 18.7v15h165c0-19.4-0.5-27.3-1.2-30.2-0.6-2.9-2.6-7-4.2-9.2-1.7-2.2-5.6-5.2-8.6-6.8l-5.5-2.8h-127zm-13.1 211.3h165v-148h-165zm361.5-110.7c-1.4 1.5-4 5-5.9 7.9-1.8 2.9-4.5 8.2-6 11.8-1.4 3.5-2.6 7-2.6 7.7 0 1 5.6 1.3 24.5 1.3h24.5c-2.9-8.2-4.7-12.6-6-15-1.2-2.5-3.9-6.7-5.9-9.4-2-2.7-4.9-5.7-6.6-6.7-1.6-1-4.3-1.9-6-1.8-1.6 0-4 0.3-5.2 0.8-1.3 0.4-3.4 2-4.8 3.4zm-44 13.1c-2.2 1.6-6.6 5.5-9.7 8.5-3.2 3.1-5.5 5.9-5.3 6.3 0.3 0.4 6.3 0.8 13.3 0.8h12.7c4.5-12 7-18.1 8.6-21.3 1.9-3.7 2.5-5.7 1.7-5.7-0.7 0-4.9 1.9-9.3 4.2-4.5 2.4-9.9 5.6-12 7.2zm91 2.1c2.5 6 4.5 11.5 4.5 12.2 0 0.9 3.3 1.3 13 1.3 7.2 0 13.2-0.4 13.5-0.8 0.3-0.4-2.3-3.5-5.8-6.8-3.4-3.4-9.3-8.2-13.2-10.7-3.8-2.5-9.1-5.5-11.7-6.6-2.6-1.2-5.1-2.1-5.4-2.1-0.4 0-0.4 0.5-0.1 1.2 0.4 0.7 2.7 6.2 5.2 12.3zm-120.3 34.2c-1.1 2.6-2.9 7.7-4 11.3-1.1 3.5-2.4 8.8-2.8 11.7l-0.9 5.3h41c2-21.3 2.8-28.8 3.1-30.3l0.4-2.7h-34.8zm53 1c-0.6 3.1-1.4 8.6-1.7 12.2-0.3 3.6-0.8 8.4-1 10.8l-0.5 4.2h66c-0.9-12-1.5-18.4-2.1-22-0.5-3.6-1.1-7.5-1.4-8.7l-0.5-2.3h-57.8zm76.3-3c0.3 1.5 1 6.1 1.6 10.3 0.5 4.1 0.9 10.3 1 13.7v6.3h41c0-4.3-0.9-9.1-2-13.5-1.2-4.4-3.3-10.6-4.8-13.8l-2.7-5.8-34.7 0.1zm-134.8 58.5c0.9 4 2.9 10.5 4.5 14.5l2.9 7.2h35c-0.7-4.2-1.5-11.7-2.2-19.2l-1.3-13.8c-39.9 0-40.5 0.1-40.5 2 0 1.1 0.7 5.3 1.6 9.3zm55.9-5.5c0.3 3.1 1 9.5 1.6 14.2 0.5 4.7 1.2 9.5 1.4 10.8l0.5 2.2c55.7 0 58-0.1 58.5-1.7 0.3-1 1.2-7.2 2-13.8 0.8-6.6 1.5-13.2 1.5-14.7v-2.8h-66zm81.4 0c0 3.2-0.4 9.6-1 14.3-0.6 4.6-1.2 9.5-1.5 10.7l-0.5 2.3h35c3.2-7.4 5.3-13.4 6.6-18 1.4-4.7 2.4-10 2.4-11.8v-3.2h-41zm-420 42.7c0 14.4 0.2 15.9 2.4 20.3 1.3 2.6 3.5 5.7 4.8 6.9 1.3 1.1 4.2 3 6.6 4.2 4.2 2.1 5.1 2.1 68.2 2.1 51 0 64.7-0.3 67.3-1.3 1.7-0.8 4.9-2.9 7-4.8 2.1-1.8 4.8-5.4 6-7.9 1.9-3.9 2.2-6.5 2.4-19.7l0.3-15.3h-165zm308.8 8.6c3.7 3.6 9.4 8.3 12.7 10.4 3.3 2.1 8.3 4.9 11 6.2 2.8 1.3 5.6 2.3 6.3 2.3 0.7 0 0-2.5-2.2-6.7-1.8-3.7-4.3-9.8-5.5-13.5l-2.1-6.8c-20.1 0-26.1 0.4-26.4 0.8-0.3 0.4 2.5 3.7 6.2 7.3zm41.4 2.7c1.8 4.2 5.2 10.3 7.5 13.5 2.4 3.1 5.7 6.4 7.3 7.2 1.7 0.8 4.4 1.5 6 1.5 1.7 0 4.2-0.6 5.8-1.4 1.5-0.7 4.3-3.1 6.1-5.2 1.9-2.1 5.4-7.9 7.7-12.9 2.3-4.9 4.4-9.9 4.6-11 0.3-1.9-0.3-2-23.9-2.3-21.1-0.2-24.3 0-24.3 1.3 0 0.8 1.5 5 3.2 9.3zm60.3-1.8c-1.5 4.1-3.8 9.7-5.1 12.3-1.3 2.6-2.1 5.1-1.8 5.5 0.3 0.4 3.7-0.9 7.7-2.9 4-2 11-6.5 15.6-10 4.7-3.5 9.5-7.7 10.8-9.4 1.2-1.6 2.3-3.3 2.3-3.7 0-0.4-5.8-0.8-12.9-0.8-7.2 0-13.2 0.4-13.5 0.8-0.2 0.4-1.6 4.1-3.1 8.2zm-293-444l12 12-35.5 35.5c-19.5 19.5-35.9 35.5-36.5 35.5-0.5 0-5.8-4.8-22.5-21.5l11.5-11.5 10.5 10.5zm253.1 6.1c2.2-0.1 6.2 0.7 9 1.6 3.1 1 6.6 3.3 9.2 6 3.1 3.1 4.7 5.9 5.9 10.1 1 3.6 1.4 7.3 1 10-0.4 2.3-1.5 5.9-2.5 8-1.1 2-3.5 5.1-5.3 6.9-1.8 1.8-5.1 4-7.3 4.9-2.2 0.9-6.5 1.7-9.5 1.7-3.1-0.1-7.1-0.7-9-1.5-2-0.8-5.3-3-7.4-4.9-2.1-1.9-4.7-5.4-5.9-7.9-1.5-3.1-2.1-6.4-2.1-10.5 0-4.2 0.7-7.2 2.2-10 1.2-2.2 2.7-4.7 3.4-5.5 0.7-0.9 2.8-2.7 4.8-4.2 1.9-1.4 4.8-3 6.5-3.6 1.6-0.6 4.8-1.1 7-1.1zm-7.6 25c0 1.7 1.2 4 2.6 5.4 1.5 1.6 3.6 2.5 5.5 2.5 1.9 0 4-0.9 5.5-2.5 1.6-1.6 2.5-3.7 2.5-5.7 0-2.1-0.8-4.1-2.3-5.5-1.5-1.5-3.5-2.3-5.9-2.3-2.8 0-4.2 0.7-5.9 2.6-1.2 1.5-2.1 3.9-2 5.5zm-339.5 172.9c0.9 0 2.7 0.5 4.1 1 1.3 0.6 3.1 2.5 3.9 4.3 0.9 2.1 1 4.1 0.5 5.7-0.5 1.4-1.4 3-2.1 3.7-0.8 0.7-2.8 1.5-4.6 1.8-2.7 0.4-3.8 0-6.2-2.5-1.9-1.9-3-4-3-5.6 0.1-1.4 1.4-3.9 3-5.5 1.5-1.6 3.5-2.9 4.4-2.9zm34.9 0.4c1.7 0.4 3.9 1.5 4.9 2.4 1 0.9 1.9 2.6 2.1 3.7 0.2 1.1-0.2 3.5-1 5.3-0.7 1.7-2.5 3.7-3.8 4.2-1.4 0.6-3.2 1-4 1-0.9 0-2.9-1.3-4.5-3-1.9-1.9-3-4-3-5.6 0.1-1.4 1.4-3.9 3.1-5.6 2.6-2.5 3.6-2.9 6.2-2.4zm15.7 65.6h16v8.5c0 8.1 0.1 8.5 2.2 8.5 1.3 0 4 0.6 6.2 1.3 2.1 0.7 5.7 2.8 7.9 4.7 2.2 1.9 5.1 5.8 6.3 8.5 1.3 2.8 2.3 6.2 2.4 10.5h-15.5l-1.8-3.5c-0.9-1.9-2.9-3.9-4.2-4.5-1.4-0.5-6.6-1-11.5-1-5.6 0-10.1 0.5-11.8 1.4-1.5 0.7-3.1 2.1-3.5 3-0.4 0.9-0.8 2.8-0.8 4.4 0 1.5 0.9 3.8 1.9 5.2 1.9 2.4 2.5 2.5 15.8 3 11.5 0.5 14.5 0.9 17.9 2.7 2.2 1.2 5.2 3.4 6.7 5 1.4 1.5 3.6 4.8 4.7 7.3 1.1 2.5 2 6.5 2 9 0 2.5-0.5 6.3-1.2 8.4-0.7 2.2-3 6-5.2 8.4-2.2 2.5-5.4 5.1-7 6-1.7 0.8-4.8 1.7-11 2.8l-0.5 16.4h-16v-17h-3c-1.7 0-4.5-0.6-6.3-1.3-1.8-0.8-5-2.9-7.1-4.8-2.1-1.9-4.7-5-5.7-6.9-0.9-1.9-2-5.2-2.9-11h8.2c8.2 0 8.3 0 9.5 3 0.7 1.7 2.4 3.5 3.8 4 1.3 0.6 6.9 1 12.2 1 7.1 0 10.4-0.4 12-1.5 1.3-0.8 2.7-2.6 3.3-4q1-2.5 0-5.5c-0.6-1.7-2.3-3.6-4-4.5-2.2-1.1-6.3-1.5-14.5-1.5-7.3 0-12.7-0.5-14.8-1.3-1.8-0.8-5-2.9-7.1-4.8-2.1-1.9-4.8-5.2-6-7.4-1.5-2.9-2.1-5.8-2.1-11 0-5.2 0.6-8 2.2-11 1.1-2.2 3.4-5.2 4.9-6.7 1.6-1.5 4.9-3.6 7.4-4.7 2.4-1.1 5.7-2.1 10-2.1zm36.1 165.5l2.5 2.8c1.3 1.5 2.4 3.9 2.4 5.5 0 1.5-0.8 3.8-3.9 7.7l-27.3 0.3c-16.9 0.2-28.3-0.1-29.8-0.7-1.4-0.6-3.1-2.2-3.8-3.6-0.7-1.4-1.3-3.3-1.3-4.2 0-1 0.9-3 2.1-4.5 1.1-1.5 3-2.9 4.3-3.1 1.2-0.3 14-0.4 54.8-0.2z"/>
</svg>