<svg version="1.2" xmlns="http://www.w3.org/2000/svg" viewBox="0 0 512 512" width="512" height="512">
	<path id="Path 0" fill="#95C45A" d="m336.5 8.3c7.5 0.2 14.3 0.9 18 2 3.3 0.9 9.8 3.6 14.5 5.9 6.7 3.4 10.3 6.1 17 12.8 4.7 4.7 10.2 11.4 12.3 15 2.1 3.6 4.9 10 6.2 14.2 1.4 4.3 2.8 11.7 3.1 16.5 0.4 5.4 0.2 11.7-0.6 16.3-0.7 4.1-2.5 10.9-4.1 15-1.5 4.1-5 10.7-7.7 14.5-2.7 3.8-7.8 9.7-18 19l7.7 6.6c4.2 3.7 11 10.6 15.1 15.4 4.1 4.7 9.4 11.4 11.8 14.8 2.4 3.4 4.8 6.1 5.3 5.9 0.5-0.1 5.6-3.6 11.4-7.7 5.8-4.1 11.1-7.5 11.7-7.4 0.7 0 15.2 10 63.3 44.4l0.5 20.5h-16v64h-40l-0.4 3.2c-0.2 1.8-0.9 7.8-1.5 13.3-0.6 5.5-2.2 14.5-3.5 20-1.4 5.5-3.7 13.6-5.2 18-1.4 4.4-5 12.9-7.9 19-2.8 6.1-7.5 14.8-10.4 19.5-2.9 4.7-6.6 10.2-11.1 16v39.3c0 28.2-0.4 40.3-1.3 43.1-0.6 2.2-2.8 5.8-4.8 8-2 2.3-5.5 5.1-7.8 6.3-4 2.3-4.6 2.3-42.1 2.3-37.5 0-38.1 0-42.1-2.3-2.3-1.2-5.8-4-7.8-6.3-2-2.2-4.2-5.8-4.8-8-0.7-2.1-1.3-5.7-1.3-11.9l-3.2 0.8c-1.8 0.5-8.5 1.5-14.8 2.2-6.3 0.8-13.9 1.5-22 1.5v24h-176v-21.8c0-14.4 0.4-23 1.3-25.6 0.6-2.2 2.8-5.8 4.8-8 1.9-2.3 5-4.8 10-7.1l-0.1-15.5-10.5-21.3c-6.9-13.8-11-23.5-12-27.9-1.1-4.9-1.5-12.9-1.5-28.3 0-11.8-0.2-22.2-0.5-23-0.3-0.8-1.1-1.3-1.7-1-0.8 0.3-10.4-8.6-43-41l10.2-20.5-7.8-18.5-21.2-6.5v-60l21.2-6.5 7.8-18.5-10.2-20.5 42-42 20.2 10.5 18.5-7.8 6.5-21.2h60l6.5 21.2 18.5 7.8 20.5-10.1 7 7.2 11-1.1c6.1-0.5 14.9-1 28.5-1l-0.7-2.7c-0.5-1.6-0.8-8.2-0.7-14.8 0.1-10.1 0.5-13.3 2.7-20 1.5-4.4 4.3-10.9 6.4-14.5 2.1-3.6 7.4-10.1 11.8-14.5 4.4-4.4 10.7-9.6 14-11.5 3.3-1.9 10.3-5 15.5-6.7 8.9-3.1 10.2-3.3 21.5-3zm-26.4 22.3c-4.4 2.3-10 6.4-13.8 10.2-4.6 4.5-7.4 8.4-10.3 14.5-2.7 5.5-4.4 10.8-5.2 16.2-0.9 6.3-0.9 9.8 0 16.5 0.8 5.7 2.3 10.8 4.6 15.5 1.8 3.8 4.9 9 6.9 11.5 2 2.5 7.1 7.2 11.4 10.6 4.3 3.3 9.3 8.2 11.1 11 1.8 2.7 3.7 7.2 4.2 10.2l1 5.2h8l0.1-49.5c-5-2.3-8.1-4.8-10-7.1-2-2.2-4.2-5.8-4.8-8-0.7-2.1-1.3-5.5-1.3-7.4 0-1.9 0.6-5.3 1.2-7.5 0.8-2.4 3.2-6 6.3-9 3-3.1 6.6-5.5 9-6.3 2.2-0.6 5.6-1.2 7.5-1.2 1.9 0 5.3 0.6 7.5 1.2 2.4 0.8 6 3.2 9 6.3 3.1 3 5.5 6.6 6.3 9 0.6 2.2 1.2 5.6 1.2 7.5 0 1.9-0.6 5.3-1.3 7.4-0.6 2.2-2.8 5.8-4.8 8-1.9 2.3-5 4.8-6.8 5.6l-3.2 1.5 0.1 49.5c7.5 0 7.5 0 8.7-5.2 0.7-2.9 2.7-7.5 4.5-10.2 1.8-2.8 6.8-7.7 11.1-11 4.3-3.4 9.4-8.1 11.4-10.6 1.9-2.5 4.5-6.5 5.8-9 1.2-2.5 3.1-7 4.1-10 1.4-4 1.9-8.4 1.9-16 0-7.6-0.5-12-1.9-16-1-3-3.3-8.2-5-11.4-1.7-3.3-5.8-8.7-9.1-12-3.4-3.4-9.1-7.7-13-9.8-3.9-2.1-10.1-4.4-14-5.2-3.9-0.9-9.7-1.5-13-1.5-3.3 0-8.7 0.6-12 1.3-3.3 0.7-9.3 3.1-13.4 5.2zm17.9 49.4c0 1.9 0.9 3.9 2.5 5.5 1.6 1.6 3.6 2.5 5.5 2.5 2 0 4-0.9 5.5-2.5 1.6-1.5 2.5-3.7 2.5-5.5 0-1.9-0.9-3.9-2.5-5.5-1.6-1.6-3.6-2.5-5.5-2.5-2 0-4 0.9-5.5 2.5-1.4 1.4-2.4 3.6-2.5 5.5zm-205.8 19.5l-2.1 7c-9 2.9-15.9 5.7-21.1 8.2l-9.5 4.4-17.5-8.6-25.5 25.5 8.7 17.5c-6.2 12.4-9 19.3-10.3 23.3l-2.4 7.2-18 5.6v36.8l18 5.6c3.7 11.2 6.5 18.1 8.7 22.5l4 8-8.7 17.5 9.5 9.5c0-6.6 0.7-10.2 1.6-12.2 0.8-2.1 2.7-5.1 4.2-6.6 1.5-1.6 4.4-3.7 6.5-4.8 2-1 4.4-1.9 5.2-1.9 0.8 0 1.5-0.2 1.5-0.5 0-0.3-2-3.5-4.4-7.2-2.4-3.8-5.6-9.5-7-12.8-1.5-3.3-3.6-9.4-4.7-13.5-1.1-4.1-2.2-12-2.6-17.5-0.4-7-0.1-12.7 1.1-19.2 0.9-5.1 2.8-12.6 4.4-16.5 1.5-4 5-10.9 7.7-15.3 2.7-4.4 8.3-11.4 12.5-15.5 4.1-4.2 11.1-9.8 15.5-12.5 4.4-2.7 11.3-6.2 15.3-7.7 3.9-1.6 11.1-3.5 16-4.3 4.8-0.8 11.6-1.5 15.2-1.5 3.6 0 10.6 0.7 15.5 1.5 5 0.9 12.4 3 16.5 4.6 4.1 1.7 10.9 5.1 15 7.7 4.1 2.5 10.9 8 15 12.2 4.2 4.1 9.7 10.9 12.2 15 2.6 4.1 6 10.9 7.7 15 1.6 4.1 3.7 11.6 4.6 16.5 0.8 4.9 1.5 11.9 1.5 15.5 0 3.6-0.5 9.4-1 13-0.6 3.6-2 9.4-3.1 13-1.2 3.6-3.2 8.9-4.5 11.8l-2.4 5.2c5.9 6.6 8.1 10 8.8 11.8q1.2 3.2 2.7 2.7c0.8-0.3 1.2-1.1 0.9-1.7-0.3-0.7 1.2-4.9 3.4-9.3 2.2-4.4 5-11.3 6.3-15.3l2.4-7.2 18-5.6v-36.8l-18-5.6c-3.7-11.2-6.5-18.1-8.7-22.5l-4-8 8.7-17.5-25.5-25.5-17.5 8.7c-12.4-6.2-19.3-9-23.3-10.3l-7.2-2.4-5.6-18c-36.3-0.5-36.4-0.5-37.3 1.7-0.5 1.3-1.8 5.5-2.9 9.3zm129.1 23.3l9.9 9.7-10.2 20.5 7.8 18.5 21.2 6.5v60l-21.2 6.5c-6.4 14.9-7.5 18.7-7.1 20 0.4 1.1 2.7 4.3 5.2 7.1 2.7 2.9 5.2 6.9 5.9 9.5 1 3.4 1.2 15.6 1 55.4-0.3 48.8-0.4 51.2-2.4 56.5-1.2 3-2.9 7.1-3.9 9-0.9 1.9-5.3 8.2-9.6 14l-7.8 10.5c-0.2 15-0.2 15 3 16.5 1.8 0.8 4.9 3.3 6.8 5.6 2 2.2 4.2 5.8 4.8 8 0.7 2.1 1.3 4.8 1.3 5.9 0 1.9 0.4 2 9.7 1.2 5.4-0.4 14.1-1.5 19.3-2.3 5.2-0.9 9.8-1.8 10.3-2 0.4-0.2 0.7-25.3 0.7-55.6 0-40.1 0.4-56.4 1.2-59.3 0.8-2.4 3.2-6 6.3-9 3-3.1 6.6-5.5 9-6.3 2.8-0.8 14.8-1.2 39.5-1.2 25.4 0 36.6 0.4 39.4 1.3 2.2 0.6 5.8 2.8 8 4.8 2.3 1.9 5 5.3 6.1 7.5 1.6 3.2 2.1 6.5 2.5 18.9l0.5 15c7.2-13.9 10.8-22.3 12.8-27.5 1.9-5.2 4.7-14.7 6.1-21 1.4-6.3 2.8-14.4 3.1-18 0.3-3.6 0.8-8 1-9.7l0.5-3.3h-40v-64h-16l0.5-20.4c20.2-14.4 26.1-19 26.3-19.4 0.2-0.4-2.5-4.5-5.9-9.2-3.5-4.7-11.3-13.4-17.3-19.5l-11.1-11c-1.1 22.2-1.6 24.8-3.7 29-1.4 2.8-3.7 6.3-5 8-1.4 1.7-5.4 4.6-8.9 6.5-5.9 3.2-7.1 3.5-14.9 3.5-7.8 0-9-0.3-14.9-3.5-3.5-1.9-7.5-4.8-8.9-6.5-1.3-1.7-3.6-5.2-5-8-2.2-4.4-2.6-6.7-3.1-19-0.5-11-1-14.7-2.3-16.8-1-1.5-3.5-3.9-5.5-5.4-2-1.6-6.6-5.5-10.1-8.8-3.5-3.3-8.1-8.7-10.2-12-3.3-5.1-4.4-6.1-7.7-6.7-2.1-0.4-8.1-0.7-13.3-0.7-5.2 0.1-10.4 0.3-11.5 0.6-1.7 0.4-0.3 2.1 7.8 10.1zm-130.8 17.2c-3.3 1.1-8.9 3.7-12.5 5.7-3.8 2.1-9.9 7-14.6 11.7-5 5-9.5 10.7-11.9 15.1-2.2 3.9-4.9 10.3-6.2 14.3-1.3 3.9-2.6 11.1-2.9 16-0.4 5.3-0.2 11.6 0.6 16.2 0.7 4.1 2.5 10.9 4.1 15 1.5 4.1 4.7 10.2 7 13.5 2.2 3.3 6 8 8.2 10.3 2.3 2.4 6.9 6.3 10.2 8.7 3.3 2.4 8.6 5.5 11.8 6.9l5.7 2.6c0-89.1 0.4-104.6 1.2-107.5 0.8-2.4 3.2-6 6.3-9 3-3.1 6.6-5.5 9-6.3 2.2-0.6 5.6-1.2 7.5-1.2 1.9 0 5.3 0.6 7.5 1.2 2.4 0.8 6 3.2 9 6.3 3.1 3 5.5 6.6 6.3 9 0.8 2.8 1.2 15.4 1.2 42.3v38.2c8.5-1 12-0.8 14.5 0 2.2 0.7 5.1 2.1 6.5 3.1 2.5 1.8 2.6 1.7 9-1.5 6.2-3.1 6.7-3.6 10.2-10.7 2.1-4.1 4.5-10.3 5.5-13.9 1.3-4.7 1.8-9.9 1.7-19-0.1-10.7-0.5-13.7-2.7-20.5-1.5-4.4-4.3-10.9-6.4-14.5-2.1-3.6-7.4-10.1-11.8-14.5-4.4-4.4-10.9-9.7-14.5-11.8-3.6-2.1-10.1-4.9-14.5-6.3-5.8-1.9-10.8-2.6-18.5-2.9-5.8-0.2-12.7 0-15.5 0.5-2.7 0.5-7.7 1.9-11 3zm15.6 32.9l-0.1 179.1h-16c0-29.6-0.4-36.2-1.5-40.5-0.9-3.3-3-8.4-4.8-11.4-1.8-2.9-5.2-7.1-7.7-9.4-2.5-2.2-7.4-5.4-11-7-4.5-2.2-8.7-3.2-13.7-3.6-7-0.6-7.2-0.6-8.5 2.2-1.2 2.6-0.9 3.6 5.4 16.5 3.7 7.5 7.5 16.6 8.3 20.2 1.1 4.7 1.5 12.5 1.5 28 0 15.9 0.4 23 1.5 27.3 0.8 3.1 6.2 15.2 12 26.7l10.5 21v18h112v-18.5c13.4-17.8 18.6-25.9 20.4-29.5l3.1-6.5 0.5-100.5c-4.1-4.1-6.1-5-8-5-2 0-4 0.9-5.5 2.5-2.3 2.3-2.5 3.3-2.5 12v9.5h-16c0-34.8 0-35-2.5-37.5-1.6-1.6-3.6-2.5-5.5-2.5-2 0-4 0.9-5.5 2.5-2.5 2.5-2.5 2.8-2.5 20v17.5h-16c0-34.8 0-35-2.5-37.5-1.6-1.6-3.6-2.5-5.5-2.5-2 0-4 0.9-5.5 2.5-2.5 2.5-2.5 2.8-2.5 20v17.5h-16v-131c-4.1-4.1-6.1-5-8-5-2 0-4 0.9-5.5 2.5zm184.3-1.7c0.3 1.8 1.5 4.4 2.5 5.7 1 1.4 3.1 3.4 4.6 4.5 1.9 1.5 4.2 2 8.5 2 4.3 0 6.6-0.5 8.6-2 1.5-1.1 3.5-3.1 4.5-4.5 1-1.3 2.2-3.9 2.6-5.7l0.8-3.3h-32.8zm78.2 44.3c31.7 0.4 50.4 0.4 61.9 0.3l21-0.3c-31.7-22.8-41.2-29.4-41.5-29.4-0.2 0-9.7 6.6-20.9 14.7zm9.4 64.5h64v-48h-64zm-93.5 66.4c-1.9 2-2.4 3.6-2.5 8v5.6h80c0-10.1-0.4-11.5-2.5-13.5l-2.5-2.5h-70.1zm-2.5 109.5h80v-80h-80zm-213.5 2.5c-2.3 2.3-2.4 3-2.4 16l-0.1 13.5h144c0-26.5-0.1-27.1-2.5-29.5l-2.5-2.5h-134.1zm213.5 19.1c0 4.5 0.5 5.9 2.5 8l2.5 2.5h70.1c4.5-4.6 4.9-6 4.9-10.5v-5.5h-80zm-16-197.5h16v16h-16zm32 0h16v16h-16zm32 0h16v16h-16z"/>
</svg>