<?xml version="1.0" encoding="UTF-8"?>
<svg id="Layer_1" data-name="Layer 1" xmlns="http://www.w3.org/2000/svg" xmlns:xlink="http://www.w3.org/1999/xlink" viewBox="0 0 248.63 60">
  <defs>
    <style>
      .cls-1 {
        fill: url(#linear-gradient-2);
      }

      .cls-2 {
        fill: url(#linear-gradient-6);
      }

      .cls-3 {
        clip-path: url(#clippath-2);
      }

      .cls-4 {
        clip-path: url(#clippath-1);
      }

      .cls-5 {
        clip-path: url(#clippath-4);
      }

      .cls-6 {
        fill: url(#linear-gradient-5);
      }

      .cls-7 {
        clip-path: url(#clippath);
      }

      .cls-8 {
        fill: none;
      }

      .cls-9 {
        clip-path: url(#clippath-3);
      }

      .cls-10 {
        fill: url(#linear-gradient-3);
      }

      .cls-11 {
        fill: url(#linear-gradient);
      }

      .cls-12 {
        fill: #202c54;
      }

      .cls-13 {
        fill: url(#linear-gradient-4);
      }
    </style>
    <clipPath id="clippath">
      <path class="cls-8" d="M75.78,29.24c3.78-.24,7.57-.22,11.35,.03L93.54,0l-17.75,29.24Z"/>
    </clipPath>
    <linearGradient id="linear-gradient" x1="69.75" y1="13.79" x2="92.65" y2="15.09" gradientUnits="userSpaceOnUse">
      <stop offset=".25" stop-color="#72ae0f"/>
      <stop offset=".85" stop-color="#d0e3aa"/>
    </linearGradient>
    <linearGradient id="linear-gradient-2" x1="13.12" y1="25.79" x2="93.53" y2="25.79" gradientUnits="userSpaceOnUse">
      <stop offset="0" stop-color="#72ae0f"/>
      <stop offset=".45" stop-color="#accf6e"/>
      <stop offset="1" stop-color="#d0e3aa"/>
    </linearGradient>
    <clipPath id="clippath-1">
      <path class="cls-1" d="M13.12,51.59c11.11-6.65,22.61-12.59,34.85-16.73,8.98-3.09,18.34-4.98,27.82-5.61L93.53,0,13.12,51.59Z"/>
    </clipPath>
    <linearGradient id="linear-gradient-3" x1="13.12" y1="25.79" x2="95.06" y2="25.79" gradientUnits="userSpaceOnUse">
      <stop offset="0" stop-color="#72ae0f"/>
      <stop offset=".8" stop-color="#d0e3aa"/>
    </linearGradient>
    <clipPath id="clippath-2">
      <path class="cls-8" d="M75.78,29.24l-8.72,14.37,13.36,16.39,6.71-30.72c-1.95-.13-3.91-.2-5.87-.2-1.82,0-3.65,.06-5.48,.17"/>
    </clipPath>
    <linearGradient id="linear-gradient-4" x1="380.43" y1="832.09" x2="380.49" y2="832.09" gradientTransform="translate(-23287.69 25776.81) scale(20.07 -30.92)" gradientUnits="userSpaceOnUse">
      <stop offset="0" stop-color="#00184e"/>
      <stop offset="1" stop-color="#122c63"/>
    </linearGradient>
    <clipPath id="clippath-3">
      <path class="cls-8" d="M73.54,29.18l-1.18,.02c-.43,0-.9,.05-1.39,.07-1,.04-2.11,.16-3.33,.28-1.21,.16-2.54,.3-3.92,.55-.69,.12-1.41,.22-2.13,.37s-1.46,.3-2.21,.46-1.51,.34-2.28,.52-1.54,.37-2.32,.58c-1.55,.45-3.12,.88-4.68,1.37-.77,.26-1.55,.52-2.32,.78-.77,.26-1.54,.51-2.29,.8s-1.5,.56-2.23,.85-1.47,.55-2.17,.86c-1.41,.59-2.76,1.2-4.05,1.76s-2.46,1.19-3.55,1.73c-.55,.27-1.07,.53-1.57,.78-.5,.25-.95,.52-1.39,.76-.87,.48-1.62,.91-2.24,1.27s-1.1,.64-1.43,.83l-.5,.3s.19-.08,.55-.22,.88-.34,1.54-.61,1.46-.59,2.37-.98,1.95-.79,3.08-1.24l3.65-1.45c1.3-.48,2.68-.99,4.1-1.54,1.42-.53,2.92-1,4.4-1.56,.74-.28,1.51-.51,2.28-.77l2.3-.75c1.54-.5,3.09-.95,4.61-1.41,1.54-.39,3.03-.87,4.5-1.23,.73-.18,1.46-.36,2.16-.55s1.4-.33,2.08-.49c1.35-.32,2.64-.58,3.83-.83l1.71-.32c.27-.05,.54-.1,.79-.15l.75-.12c.97-.17,1.82-.3,2.53-.4s1.26-.18,1.64-.22,.58-.06,.58-.06c0,0-.2-.02-.58-.03-.32-.02-.77-.03-1.34-.03h-.32"/>
    </clipPath>
    <linearGradient id="linear-gradient-5" x1="4.22" y1="36.66" x2="105.74" y2="36.66" xlink:href="#linear-gradient-3"/>
    <clipPath id="clippath-4">
      <path class="cls-8" d="M47.97,34.85c-12.24,4.15-23.74,10.08-34.85,16.73L0,60l67.06-16.39,8.72-14.37c-9.48,.63-18.83,2.52-27.82,5.61"/>
    </clipPath>
    <linearGradient id="linear-gradient-6" x1="6.49" y1="52.88" x2="72.85" y2="35.38" gradientUnits="userSpaceOnUse">
      <stop offset="0" stop-color="#00184e"/>
      <stop offset="1" stop-color="#767ea7"/>
    </linearGradient>
  </defs>
  <g id="Grupo_622" data-name="Grupo 622">
    <g>
      <path id="Trazado_1322" data-name="Trazado 1322" class="cls-12" d="M114.16,23.45c0,.79-.15,1.57-.47,2.29-.31,.7-.79,1.32-1.38,1.82-.66,.54-1.41,.95-2.23,1.2-.98,.3-2,.45-3.02,.43h-9.41v-1.59c-.04-.42,.26-.79,.67-.84l.17-.03,.4-.07c.19-.04,.46-.08,.8-.14V12.35l-.8-.14-.4-.07-.17-.03c-.42-.05-.71-.43-.67-.84v-1.59h8.78c1.1-.02,2.2,.1,3.27,.36,.8,.19,1.56,.55,2.23,1.04,.56,.42,1,.99,1.27,1.63,.28,.68,.41,1.42,.4,2.16,0,.45-.06,.89-.2,1.32-.14,.43-.35,.82-.63,1.17-.31,.39-.67,.72-1.08,.99-.48,.32-1.01,.57-1.56,.76,2.68,.6,4.02,2.05,4.02,4.34m-10.83-5.33h2.9c.98,.06,1.96-.17,2.81-.68,.66-.5,1.03-1.31,.96-2.14,.08-.82-.24-1.63-.86-2.17-.81-.49-1.75-.72-2.7-.65h-3.1v5.64Zm7.24,5.25c0-.39-.06-.78-.2-1.14-.13-.34-.35-.63-.64-.86-.33-.26-.7-.44-1.11-.55-.53-.14-1.08-.2-1.63-.19h-3.67v5.72h3.68c.57,.02,1.15-.07,1.69-.24,.41-.13,.78-.36,1.09-.65,.27-.26,.47-.59,.6-.94,.12-.37,.18-.76,.18-1.15"/>
      <path id="Trazado_1323" data-name="Trazado 1323" class="cls-12" d="M128.09,27.57v1.59h-3.17c-.26,.01-.51-.04-.74-.14-.2-.13-.35-.34-.4-.57l-.3-.98c-.33,.3-.67,.57-1.03,.83-.33,.23-.68,.43-1.05,.6-.37,.16-.75,.29-1.15,.36-.45,.08-.9,.12-1.35,.12-.55,0-1.09-.07-1.62-.24-.47-.14-.91-.39-1.28-.71-.36-.33-.65-.73-.83-1.18-.21-.52-.31-1.08-.3-1.64,0-.54,.15-1.08,.41-1.55,.33-.57,.8-1.04,1.37-1.38,.79-.47,1.65-.82,2.55-1.02,1.3-.3,2.62-.43,3.95-.41v-.82c.06-.74-.15-1.47-.59-2.07-.44-.47-1.07-.72-1.71-.67-.46-.01-.91,.05-1.35,.19-.33,.11-.64,.25-.94,.42-.26,.16-.51,.3-.73,.42-.23,.13-.48,.19-.74,.19-.21,0-.41-.06-.58-.17-.16-.11-.29-.26-.39-.43l-.61-1.06c1.56-1.45,3.63-2.23,5.76-2.19,.74-.01,1.48,.12,2.17,.4,.61,.25,1.16,.63,1.61,1.11,.45,.49,.79,1.06,1.01,1.69,.24,.7,.35,1.43,.34,2.16v6.13c.31,.05,.54,.1,.71,.13l.29,.05c.42,.05,.71,.43,.68,.84m-4.93-4.28c-.82-.01-1.63,.05-2.43,.18-.54,.09-1.07,.25-1.57,.47-.34,.14-.63,.37-.84,.67-.16,.24-.25,.53-.25,.83-.05,.48,.15,.95,.52,1.26,.4,.27,.87,.4,1.36,.38,.32,0,.63-.03,.95-.09,.28-.06,.56-.15,.82-.28,.26-.13,.51-.28,.74-.46,.26-.2,.5-.41,.72-.65v-2.32Z"/>
      <path id="Trazado_1324" data-name="Trazado 1324" class="cls-12" d="M145.25,27.59v1.59h-5.38v-8.81c.05-.7-.16-1.4-.59-1.96-.45-.49-1.1-.75-1.76-.7-.56,0-1.12,.13-1.62,.39-.53,.28-1.01,.64-1.43,1.07v7.34l.8,.14,.4,.07,.17,.03c.42,.05,.71,.43,.68,.84v1.59h-7.42v-1.58c-.04-.42,.26-.79,.68-.84l.17-.03,.4-.07,.8-.14v-8.49l-.8-.14-.4-.07-.17-.03c-.42-.05-.72-.43-.68-.84v-1.59h4.08c.39-.03,.75,.23,.85,.61l.23,1.09c.27-.28,.57-.54,.88-.78,.31-.23,.64-.44,.98-.61,.35-.17,.73-.3,1.11-.39,.43-.09,.86-.14,1.3-.14,.69-.01,1.37,.12,2.01,.39,.56,.24,1.07,.61,1.46,1.08,.41,.49,.71,1.05,.89,1.66,.21,.69,.31,1.41,.3,2.12v6.14l.8,.14,.4,.07,.17,.03c.42,.05,.71,.43,.67,.84"/>
      <path id="Trazado_1325" data-name="Trazado 1325" class="cls-12" d="M157.82,27.12c-.35,.41-.75,.78-1.2,1.09-.42,.29-.87,.52-1.34,.7-.46,.18-.95,.3-1.44,.37-.49,.07-.98,.11-1.47,.11-.83,0-1.65-.16-2.41-.48-.75-.32-1.43-.79-1.98-1.4-.59-.65-1.04-1.42-1.34-2.25-.34-.97-.51-2-.49-3.03,0-.96,.14-1.91,.44-2.83,.27-.83,.71-1.6,1.29-2.25,.58-.65,1.3-1.16,2.11-1.49,.92-.38,1.9-.56,2.89-.54,1.5,.08,2.97,.42,4.36,1v4.26h-1.55c-.31,.03-.59-.19-.63-.5-.04-.23-.11-.88-.22-1.95-.57-.16-1.16-.25-1.76-.27-.53-.01-1.06,.1-1.54,.32-.44,.21-.81,.52-1.1,.91-.31,.43-.53,.92-.65,1.44-.15,.62-.22,1.27-.21,1.91,0,.66,.07,1.33,.23,1.97,.13,.52,.36,1.02,.68,1.45,.28,.38,.65,.69,1.08,.89,.45,.21,.94,.31,1.43,.3,.44,.02,.87-.05,1.29-.2,.29-.11,.57-.26,.83-.43,.22-.16,.42-.3,.59-.43,.16-.13,.36-.2,.56-.2,.24-.01,.48,.1,.61,.31l.96,1.23Z"/>
      <path id="Trazado_1326" data-name="Trazado 1326" class="cls-12" d="M168.22,15.62c.81,.31,1.55,.8,2.15,1.42,.61,.64,1.08,1.4,1.38,2.24,.34,.95,.5,1.95,.49,2.96,.01,1.01-.15,2.02-.49,2.97-.3,.84-.77,1.61-1.38,2.25-.6,.63-1.34,1.12-2.15,1.43-.9,.34-1.85,.51-2.81,.5-.96,.01-1.92-.16-2.82-.5-.82-.31-1.56-.8-2.17-1.43-.61-.65-1.09-1.41-1.39-2.25-.34-.95-.51-1.96-.49-2.97-.01-1.01,.15-2.01,.49-2.96,.3-.84,.77-1.6,1.39-2.24,.61-.62,1.35-1.11,2.17-1.42,.9-.34,1.86-.51,2.82-.5,.96-.01,1.92,.16,2.81,.5m-.26,10.04c.62-1.02,.91-2.21,.83-3.4,.08-1.2-.21-2.39-.83-3.41-.6-.8-1.56-1.25-2.56-1.17-1.01-.08-1.99,.37-2.59,1.18-.62,1.02-.91,2.21-.84,3.41-.08,1.19,.21,2.38,.84,3.39,.61,.8,1.59,1.24,2.59,1.17,.99,.07,1.96-.36,2.56-1.16"/>
      <path id="Trazado_1327" data-name="Trazado 1327" class="cls-12" d="M112.14,56.65h-3.92c-.19,0-.39-.05-.55-.15-.16-.11-.27-.27-.3-.46l-.27-1.28c-.54,.63-1.2,1.15-1.92,1.55-.78,.41-1.66,.61-2.54,.59-.72,0-1.43-.15-2.07-.47-.64-.33-1.19-.79-1.62-1.37-.49-.67-.84-1.42-1.05-2.21-.26-.98-.39-2-.37-3.01,0-.97,.13-1.94,.42-2.88,.25-.83,.66-1.61,1.2-2.29,.51-.64,1.15-1.16,1.87-1.52,.77-.37,1.61-.56,2.46-.55,.68-.02,1.36,.1,1.99,.36,.54,.24,1.04,.57,1.47,.99v-4.62l-.8-.14-.4-.07c-.07-.01-.13-.03-.17-.03-.42-.05-.71-.43-.67-.84v-1.59h5.38v17.35c.29,.05,.52,.09,.69,.12l.36,.06,.16,.03c.42,.05,.72,.43,.68,.84v1.59Zm-5.21-10.25c-.32-.42-.75-.76-1.23-.98-.46-.19-.94-.28-1.44-.28-.47,0-.94,.09-1.37,.28-.41,.19-.77,.49-1.04,.86-.31,.44-.53,.94-.65,1.46-.16,.68-.24,1.38-.23,2.09-.01,.69,.06,1.38,.2,2.06,.1,.49,.29,.95,.56,1.37,.22,.33,.52,.6,.88,.77,.37,.17,.77,.25,1.18,.24,.62,.02,1.23-.13,1.77-.44,.53-.32,.99-.74,1.37-1.23v-6.21Z"/>
      <path id="Trazado_1328" data-name="Trazado 1328" class="cls-12" d="M122.04,43.06c.71,.27,1.36,.68,1.9,1.22,.55,.56,.97,1.23,1.24,1.97,.31,.85,.46,1.76,.45,2.67,0,.21,0,.42-.03,.63-.01,.14-.05,.27-.12,.39-.05,.09-.14,.16-.23,.2-.12,.04-.25,.07-.38,.06h-8.55c0,1.15,.4,2.26,1.14,3.13,.71,.68,1.66,1.04,2.64,1,.47,0,.95-.05,1.4-.19,.35-.11,.7-.25,1.03-.42,.29-.15,.55-.29,.77-.42,.19-.12,.41-.18,.64-.19,.12,0,.24,.03,.35,.08,.1,.06,.19,.14,.26,.23l.97,1.22c-.36,.42-.78,.79-1.24,1.09-.45,.29-.93,.52-1.44,.7-.5,.17-1.01,.3-1.52,.37-.5,.07-1,.11-1.51,.11-.92,0-1.83-.15-2.68-.48-.81-.31-1.55-.79-2.16-1.42-.64-.67-1.13-1.46-1.44-2.32-.37-1.03-.55-2.11-.53-3.2,0-.91,.15-1.81,.46-2.66,.29-.8,.74-1.54,1.32-2.17,.59-.63,1.3-1.13,2.09-1.46,.88-.37,1.83-.55,2.79-.54,.82,0,1.64,.13,2.41,.42m-4.63,2.79c-.59,.64-.96,1.46-1.05,2.34h6.26c0-.41-.06-.83-.17-1.22-.11-.37-.29-.71-.54-1-.25-.29-.56-.53-.92-.68-.41-.17-.85-.26-1.3-.25-.84-.05-1.66,.25-2.28,.82"/>
      <path id="Trazado_1329" data-name="Trazado 1329" class="cls-12" d="M146.6,42.86c-.04-.24-.12-.96-.23-2.14-1.21-.39-2.46-.6-3.73-.65-.87,0-1.73,.15-2.53,.48-.75,.31-1.43,.77-1.98,1.37-.58,.63-1.02,1.36-1.3,2.17-.32,.92-.48,1.89-.46,2.87-.02,1,.14,1.99,.46,2.93,.28,.8,.7,1.53,1.26,2.16,.52,.58,1.16,1.03,1.88,1.34,.73,.31,1.52,.47,2.32,.47,.45,0,.9-.02,1.34-.08,.38-.05,.75-.13,1.11-.26,.33-.12,.66-.27,.96-.45,.32-.2,.62-.43,.9-.68,.09-.08,.18-.15,.28-.2,.1-.05,.21-.08,.32-.08,.2,0,.38,.08,.51,.23l1.43,1.55c-.78,.97-1.78,1.74-2.92,2.25-1.32,.55-2.73,.82-4.16,.78-1.34,.02-2.67-.23-3.91-.74-1.12-.47-2.13-1.18-2.96-2.07-.84-.91-1.48-1.99-1.88-3.16-.45-1.29-.67-2.64-.65-4.01-.02-1.38,.23-2.74,.73-4.03,.46-1.18,1.16-2.25,2.05-3.15,.9-.9,1.98-1.6,3.16-2.06,1.3-.5,2.68-.75,4.07-.73,2.11,.1,4.18,.58,6.12,1.4v4.97h-1.55c-.31,.03-.59-.19-.63-.5"/>
      <path id="Trazado_1330" data-name="Trazado 1330" class="cls-12" d="M159.54,43.14c.81,.31,1.54,.8,2.15,1.42,.61,.64,1.08,1.4,1.38,2.24,.34,.95,.5,1.95,.49,2.96,.01,1.01-.15,2.02-.49,2.97-.3,.84-.77,1.61-1.38,2.25-.6,.63-1.34,1.12-2.15,1.43-.9,.34-1.85,.51-2.81,.5-.96,.01-1.92-.16-2.82-.5-.82-.31-1.56-.8-2.17-1.43-.61-.65-1.09-1.41-1.39-2.25-.34-.95-.51-1.96-.49-2.97-.01-1.01,.15-2.01,.49-2.96,.3-.84,.77-1.6,1.39-2.24,.61-.62,1.35-1.1,2.17-1.42,.9-.34,1.86-.51,2.82-.5,.96-.01,1.92,.16,2.81,.5m-.26,10.04c.62-1.02,.91-2.21,.83-3.4,.08-1.2-.21-2.39-.83-3.41-.59-.8-1.56-1.25-2.56-1.17-1.01-.08-1.99,.37-2.59,1.18-.62,1.02-.91,2.21-.84,3.41-.08,1.19,.21,2.38,.84,3.39,.61,.8,1.59,1.24,2.59,1.17,.99,.07,1.96-.36,2.56-1.16"/>
      <path id="Trazado_1331" data-name="Trazado 1331" class="cls-12" d="M188.04,55.12v1.59h-5.38v-8.81c.05-.71-.15-1.42-.58-1.99-.44-.47-1.06-.71-1.7-.67-.33,0-.65,.06-.95,.17-.29,.11-.55,.29-.77,.51-.23,.24-.41,.52-.52,.83-.13,.37-.2,.76-.19,1.15v6.14l.8,.14c.19,.04,.33,.06,.4,.07l.17,.03c.42,.05,.72,.43,.68,.84v1.59h-5.39v-8.81c.06-.72-.14-1.44-.56-2.02-.43-.45-1.04-.68-1.65-.64-.47,0-.93,.12-1.34,.36-.44,.26-.84,.59-1.17,.98v7.46l.79,.14,.4,.07,.17,.03c.42,.05,.71,.43,.67,.84v1.59h-7.42v-1.59c-.04-.42,.26-.79,.67-.84l.17-.03,.4-.07,.8-.14v-8.49l-.8-.14-.4-.07-.17-.03c-.42-.05-.71-.43-.67-.84v-1.59h4.08c.39-.03,.75,.23,.85,.61l.22,1.03c.24-.26,.49-.51,.76-.74,.26-.22,.55-.42,.85-.58,.31-.17,.63-.29,.97-.39,.37-.1,.76-.15,1.14-.14,.78-.03,1.54,.22,2.15,.71,.58,.5,1.02,1.15,1.26,1.88,.2-.44,.47-.84,.81-1.18,.31-.32,.67-.59,1.07-.8,.39-.21,.8-.36,1.23-.46,.43-.1,.87-.15,1.32-.15,.69-.01,1.39,.11,2.04,.35,.57,.22,1.09,.57,1.5,1.03,.42,.48,.74,1.04,.92,1.65,.22,.72,.33,1.47,.32,2.23v6.14l.8,.14,.4,.07,.17,.03c.42,.05,.71,.43,.68,.84"/>
      <path id="Trazado_1332" data-name="Trazado 1332" class="cls-12" d="M197.99,43.06c.71,.27,1.36,.68,1.9,1.22,.55,.56,.97,1.23,1.24,1.97,.31,.85,.46,1.76,.45,2.67,0,.21,0,.42-.03,.63-.01,.14-.06,.27-.12,.39-.05,.09-.14,.16-.24,.2-.12,.04-.25,.07-.38,.06h-8.55c0,1.15,.4,2.26,1.15,3.13,.71,.68,1.66,1.04,2.64,1,.47,0,.95-.05,1.4-.19,.35-.11,.7-.25,1.03-.42,.29-.15,.55-.29,.77-.42,.19-.12,.41-.18,.64-.19,.12,0,.24,.03,.35,.08,.1,.06,.19,.14,.26,.23l.97,1.22c-.36,.42-.78,.79-1.24,1.09-.45,.29-.93,.52-1.44,.7-.5,.17-1.01,.3-1.53,.37-.5,.07-1,.11-1.5,.11-.92,0-1.83-.15-2.68-.48-.81-.31-1.55-.79-2.16-1.42-.64-.67-1.13-1.46-1.44-2.32-.37-1.03-.55-2.11-.53-3.2,0-.91,.15-1.81,.46-2.66,.29-.8,.74-1.54,1.32-2.17,.59-.63,1.3-1.13,2.09-1.46,.88-.37,1.83-.55,2.79-.54,.82,0,1.64,.13,2.41,.42m-4.62,2.79c-.59,.64-.96,1.46-1.05,2.34h6.26c0-.41-.06-.83-.17-1.22-.11-.37-.29-.71-.54-1-.25-.29-.56-.53-.92-.68-.41-.17-.85-.26-1.3-.25-.84-.05-1.66,.25-2.28,.82"/>
      <path id="Trazado_1333" data-name="Trazado 1333" class="cls-12" d="M213.39,43.08l-.43,2.5c-.01,.13-.07,.26-.17,.34-.11,.07-.24,.11-.36,.1-.19,0-.37-.04-.55-.09-.3-.07-.62-.1-.93-.09-.64-.02-1.27,.19-1.78,.57-.55,.45-.98,1.03-1.25,1.68v5.95c1.15,.2,1.16,.21,1.37,.25,.42,.05,.71,.43,.68,.84v1.59h-7.42v-1.59c-.04-.42,.26-.79,.67-.84,.21-.04,.22-.04,1.37-.25v-8.49c-1.15-.2-1.16-.21-1.37-.24-.42-.05-.71-.43-.67-.84v-1.59h4c.25-.03,.51,.04,.72,.19,.16,.18,.25,.41,.27,.65l.2,1.67c.43-.79,1.03-1.48,1.74-2.03,.64-.49,1.43-.75,2.24-.74,.6-.02,1.2,.14,1.7,.47"/>
      <path id="Trazado_1334" data-name="Trazado 1334" class="cls-12" d="M225.83,54.64c-.35,.41-.75,.78-1.2,1.09-.42,.29-.87,.52-1.34,.7-.46,.18-.95,.3-1.44,.37-.49,.07-.98,.11-1.47,.11-.83,0-1.65-.16-2.41-.48-.75-.32-1.43-.79-1.98-1.4-.59-.65-1.04-1.42-1.34-2.25-.34-.97-.51-2-.49-3.03,0-.96,.14-1.91,.44-2.83,.27-.83,.71-1.6,1.29-2.25,.58-.65,1.3-1.16,2.11-1.49,.92-.38,1.9-.56,2.89-.54,1.5,.08,2.97,.42,4.36,1v4.26h-1.55c-.31,.03-.59-.19-.63-.5-.04-.23-.11-.88-.22-1.95-.57-.16-1.16-.25-1.76-.26-.53-.01-1.05,.1-1.54,.32-.44,.21-.81,.52-1.1,.91-.31,.43-.53,.92-.65,1.44-.15,.62-.22,1.27-.22,1.91,0,.66,.07,1.33,.23,1.97,.13,.52,.36,1.02,.68,1.45,.28,.38,.65,.69,1.08,.89,.45,.21,.94,.31,1.43,.3,.44,.01,.87-.05,1.29-.2,.29-.11,.57-.26,.83-.43,.22-.16,.42-.3,.59-.43,.16-.13,.36-.2,.56-.2,.24-.01,.47,.11,.61,.31l.95,1.23Z"/>
      <path id="Trazado_1335" data-name="Trazado 1335" class="cls-12" d="M234.05,55.12v1.59h-7.42v-1.59c-.04-.42,.26-.79,.67-.84l.17-.03c.07-.02,.21-.04,.4-.07l.8-.14v-8.49l-.8-.14c-.2-.03-.33-.06-.4-.07l-.17-.03c-.42-.05-.71-.43-.67-.84v-1.59h5.38v11.17l.8,.14c.2,.03,.33,.06,.4,.07l.17,.03c.42,.05,.71,.43,.67,.84m-1.72-15.48c-.11,.25-.27,.47-.47,.66-.2,.19-.43,.35-.68,.45-.26,.11-.55,.17-.84,.17-.28,0-.56-.06-.82-.17-.25-.11-.48-.26-.67-.45-.19-.19-.34-.41-.45-.66-.11-.25-.17-.53-.17-.81,0-.29,.06-.57,.17-.84,.11-.25,.26-.48,.45-.67,.19-.19,.42-.34,.67-.45,.26-.11,.54-.17,.82-.17,.29,0,.57,.06,.84,.17,.25,.11,.48,.26,.68,.45,.2,.19,.35,.42,.47,.67,.12,.26,.18,.55,.17,.84,0,.28-.06,.56-.17,.81"/>
      <path id="Trazado_1336" data-name="Trazado 1336" class="cls-12" d="M244.61,43.14c.81,.31,1.54,.8,2.15,1.42,.61,.64,1.08,1.4,1.38,2.24,.34,.95,.5,1.95,.49,2.96,.01,1.01-.15,2.02-.49,2.97-.3,.84-.77,1.61-1.38,2.25-.6,.63-1.34,1.12-2.15,1.43-.9,.34-1.85,.51-2.81,.5-.96,.01-1.92-.16-2.82-.5-.82-.31-1.56-.8-2.16-1.43-.61-.65-1.09-1.41-1.39-2.25-.34-.95-.51-1.96-.49-2.97-.01-1.01,.15-2.01,.49-2.96,.3-.84,.77-1.6,1.39-2.24,.61-.62,1.35-1.1,2.16-1.42,.9-.34,1.86-.51,2.82-.5,.96-.01,1.92,.16,2.81,.5m-.26,10.04c.62-1.02,.91-2.21,.83-3.4,.08-1.2-.21-2.39-.83-3.41-.59-.8-1.56-1.25-2.56-1.17-1.01-.08-1.99,.37-2.59,1.18-.62,1.02-.91,2.21-.84,3.41-.08,1.19,.21,2.38,.84,3.39,.61,.8,1.59,1.24,2.59,1.17,.99,.07,1.96-.36,2.56-1.16"/>
    </g>
    <g>
      <g id="Grupo_613" data-name="Grupo 613">
        <g class="cls-7">
          <g id="Grupo_612" data-name="Grupo 612">
            <rect id="Rectángulo_350" data-name="Rectángulo 350" class="cls-11" x="75.78" width="17.75" height="29.28"/>
          </g>
        </g>
      </g>
      <g id="Grupo_615" data-name="Grupo 615">
        <g>
          <path class="cls-1" d="M13.12,51.59c11.11-6.65,22.61-12.59,34.85-16.73,8.98-3.09,18.34-4.98,27.82-5.61L93.53,0,13.12,51.59Z"/>
          <g class="cls-4">
            <g id="Grupo_614" data-name="Grupo 614">
              <rect id="Rectángulo_351" data-name="Rectángulo 351" class="cls-10" x="13.12" width="80.41" height="51.59"/>
            </g>
          </g>
        </g>
      </g>
      <g id="Grupo_617" data-name="Grupo 617">
        <g class="cls-3">
          <g id="Grupo_616" data-name="Grupo 616">
            <rect id="Rectángulo_352" data-name="Rectángulo 352" class="cls-13" x="67.06" y="29.07" width="20.07" height="30.92"/>
          </g>
        </g>
      </g>
      <g id="Grupo_621" data-name="Grupo 621">
        <g class="cls-9">
          <g id="Grupo_620" data-name="Grupo 620">
            <rect id="Rectángulo_354" data-name="Rectángulo 354" class="cls-6" x="26.33" y="29.18" width="49.45" height="14.95"/>
          </g>
        </g>
      </g>
      <g id="Grupo_619" data-name="Grupo 619">
        <g class="cls-5">
          <g id="Grupo_618" data-name="Grupo 618">
            <rect id="Rectángulo_353" data-name="Rectángulo 353" class="cls-2" y="29.22" width="75.78" height="30.76"/>
          </g>
        </g>
      </g>
    </g>
  </g>
</svg>