<svg width="3079" height="3078" viewBox="0 0 3079 3078" fill="none" xmlns="http://www.w3.org/2000/svg">
<path fill-rule="evenodd" clip-rule="evenodd" d="M149.545 0C176.001 0 193.437 3.60703 209.07 12.6246C221.697 19.2375 242.14 34.868 254.767 46.8914C266.792 59.516 280.621 76.95 292.045 102.8L718.943 102.199L863.247 246.48H1187.93L1195.75 209.208C1199.96 188.167 1209.58 157.507 1217.39 141.275C1225.21 124.443 1243.25 97.991 1257.68 81.7594C1272.11 65.5277 1294.96 46.2902 1308.18 38.475C1321.41 30.6598 1347.27 18.6363 1365.3 12.0234C1397.77 0 1410.4 0 2682.07 0L2725.37 19.8387C2749.42 30.6598 2782.49 51.7008 2799.32 67.3312C2815.56 82.3605 2837.2 109.413 2846.82 126.847C2856.44 144.882 2867.87 173.137 2872.68 189.369C2877.49 207.404 2880.49 254.296 2880.49 396.773L2924.38 398.577C2957.45 399.178 2975.49 403.386 2997.74 415.41C3014.57 423.826 3036.82 441.861 3047.04 455.688C3057.87 469.515 3069.89 492.36 3073.5 506.788C3077.11 521.216 3078.91 565.102 3077.71 610.189C3075.9 675.717 3073.5 692.55 3062.68 712.389C3055.46 725.614 3042.23 743.65 3032.61 752.667C3023.59 761.685 3003.75 774.309 2988.72 780.922C2970.08 789.339 2949.04 793.547 2880.49 793.547V895.746H2922.58C2946.03 895.746 2973.69 899.353 2983.91 903.561C2994.73 908.371 3013.97 920.995 3027.2 932.418C3039.83 943.84 3056.06 963.679 3062.68 976.904C3073.5 996.743 3075.9 1014.78 3078.31 1079.1C3080.11 1136.82 3078.31 1164.47 3071.69 1184.31C3066.88 1199.34 3056.06 1220.98 3047.64 1232.4C3039.23 1243.82 3017.58 1261.26 2999.54 1270.88C2976.69 1283.5 2955.65 1288.91 2880.49 1295.53V1977.86C2880.49 2527.93 2878.69 2666.2 2872.07 2690.24C2867.87 2707.08 2858.25 2732.33 2850.43 2747.36C2842.61 2762.38 2825.18 2786.43 2811.35 2801.46C2796.92 2816.49 2771.06 2836.33 2753.62 2845.95C2735.59 2855.57 2707.33 2866.99 2691.09 2871.8C2667.64 2877.81 2564.83 2879.61 2220.3 2879.61C1805.43 2879.61 1780.18 2880.21 1780.18 2890.43C1780.18 2895.84 1773.56 2914.48 1765.75 2930.71C1757.93 2947.55 1742.9 2971.59 1732.08 2984.82C1721.25 2998.04 1701.41 3017.28 1687.58 3028.1C1674.35 3038.92 1645.49 3054.55 1584.77 3078H198.849L155.558 3058.16C129.703 3046.74 98.4376 3026.3 79.7983 3008.87C58.1528 2988.43 40.1148 2964.38 3.43766 2889.23L1.63386 2155.8C0.431332 1614.15 1.63386 1413.36 6.44398 1388.71C10.6528 1370.67 22.0769 1339.41 32.8997 1320.17C43.1212 1300.33 64.7667 1272.68 81.6021 1257.65C97.8363 1243.22 121.887 1225.79 134.513 1219.78C146.539 1213.16 172.393 1204.15 191.032 1199.34C220.494 1191.52 298.058 1190.32 1190.94 1190.32V1094.13H875.272L773.057 991.934H499.481V895.746H815.146L911.348 991.934H1190.94V643.254H842.203V547.066H1190.94V348.68H827.171L676.855 198.387H289.039L278.216 220.63C272.804 232.654 258.374 250.689 246.95 260.307C235.526 270.527 216.286 282.551 204.862 287.36C193.437 292.17 168.786 295.777 150.748 295.777C132.108 295.777 105.653 290.967 91.2224 284.354C76.1908 278.343 53.3427 260.909 40.1148 245.879C26.2857 230.85 11.8554 208.005 8.24778 194.78C4.03892 182.155 0.431332 160.513 1.0326 147.287C1.0326 134.061 4.03892 113.621 8.24778 102.199C12.4566 90.1758 22.0769 70.9383 30.4946 58.3137C39.5136 45.6891 60.5579 28.2551 78.5958 18.0352C105.051 3.60703 118.881 0 148.944 0L149.545 0ZM103.248 150.293C103.248 169.53 106.254 176.745 119.482 186.363C129.102 193.577 143.532 198.988 151.95 198.387C160.969 198.387 174.798 191.173 183.817 181.554C192.836 172.536 200.051 158.709 200.051 150.293C200.051 141.877 194.64 128.05 187.425 118.431C177.805 105.205 170.589 102.199 151.349 102.199C135.315 102.199 123.29 106.207 115.273 114.223C107.256 122.238 103.248 134.262 103.248 150.293ZM1372.52 118.431C1354.48 128.05 1333.44 143.079 1326.22 153.299C1318.4 162.918 1308.18 181.554 1303.37 193.577C1294.96 214.017 1293.75 293.973 1293.75 901.758V1587.09C1491.57 1587.09 1564.32 1589.5 1582.36 1593.11C1600.4 1596.71 1628.66 1605.73 1645.49 1612.94C1661.73 1620.76 1688.78 1638.79 1704.42 1653.22C1720.65 1668.25 1741.09 1692.3 1750.71 1707.33C1760.33 1722.36 1771.16 1745.8 1775.97 1760.23L1783.78 1785.48H2189.64V2188.27H1889.01V2380.64H2778.88C2778.88 331.246 2777.68 214.017 2769.26 193.577C2764.45 181.554 2753.62 162.316 2745.21 152.096C2737.39 141.275 2716.95 125.645 2700.71 117.229L2670.65 102.199H2288.85C2283.44 171.334 2276.82 199.589 2269.61 213.416C2262.99 226.642 2246.76 247.082 2234.13 259.105C2220.9 270.527 2199.86 284.354 2186.63 289.164C2168.59 295.175 2130.71 297.58 2033.31 297.58C1913.06 297.58 1902.23 296.979 1876.98 284.354C1861.95 277.14 1839.7 260.307 1827.08 247.082C1813.25 232.052 1801.22 210.41 1795.81 191.173C1791 173.739 1786.79 146.686 1786.79 131.055V102.199H1404.99L1372.52 118.431ZM1889.01 134.662C1889.01 162.316 1892.01 170.733 1904.04 182.756C1919.07 197.786 1919.67 197.786 2036.92 197.786C2154.16 197.786 2154.16 197.786 2169.19 182.756C2181.22 170.733 2183.63 161.715 2183.63 134.662V101.598H1889.01V134.662ZM2881.09 696.758C2915.97 697.359 2935.21 694.354 2946.03 691.348C2956.85 687.741 2968.28 679.324 2971.28 672.711C2974.89 666.098 2977.3 630.629 2977.9 593.357C2977.9 530.835 2976.69 524.823 2964.07 512.198C2953.24 501.377 2943.62 498.973 2915.97 498.973L2881.09 498.371V696.758ZM2881.09 1189.72C2935.21 1190.32 2949.04 1186.71 2961.06 1178.3C2977.3 1166.27 2977.3 1165.07 2977.9 1095.34C2977.9 1036.42 2976.09 1021.99 2967.07 1010.57C2958.66 998.547 2949.64 995.541 2919.57 993.136L2882.9 990.13L2881.09 1189.72ZM181.412 1307.55C159.366 1318.37 142.731 1332 131.507 1348.43C122.488 1361.65 111.665 1382.7 108.058 1394.12C104.45 1405.54 102.646 1431.39 103.849 1451.83C105.653 1478.88 110.463 1495.72 124.292 1517.36C135.716 1535.99 153.754 1553.43 171.792 1564.85L201.254 1583.49L1191.54 1586.49V1291.92H214.482L181.412 1307.55ZM103.248 2866.99C125.495 2910.87 138.121 2929.51 145.938 2936.72C153.754 2943.94 171.792 2955.36 185.621 2961.97L211.475 2975.2C1556.51 2974.6 1579.96 2974.6 1603.4 2963.18C1616.63 2957.16 1637.68 2940.93 1649.7 2927.11C1663.53 2912.08 1675.56 2890.43 1681.57 2871.2C1687.58 2850.16 1690.59 2813.48 1690.59 2759.98V2680.63C1392.96 2680.63 1299.77 2677.62 1278.72 2674.01C1258.88 2670.41 1219.2 2656.58 1191.54 2643.35C1151.25 2624.72 1130.81 2609.69 1097.14 2576.02C1065.87 2544.76 1048.44 2520.71 1032.8 2488.25C1020.78 2463 1006.95 2423.92 1002.14 2401.08C997.329 2377.63 993.12 2346.37 993.12 2331.95C993.12 2316.92 997.329 2285.66 1002.14 2262.81C1006.95 2239.37 1020.78 2200.29 1032.8 2175.64C1049.04 2143.18 1067.68 2117.93 1097.74 2087.87C1121.19 2065.03 1156.66 2037.37 1176.51 2027.15C1196.35 2016.93 1227.01 2003.1 1245.65 1997.69C1273.91 1988.68 1308.18 1986.87 1484.35 1985.07L1690.59 1983.27C1690.59 1850.41 1687.58 1813.74 1681.57 1793.9C1676.76 1777.06 1664.73 1754.22 1655.71 1742.8C1646.09 1730.77 1623.85 1713.94 1605.81 1704.92L1573.34 1688.09C480.241 1688.69 226.507 1686.29 205.463 1682.68C186.824 1679.07 156.76 1668.85 137.52 1659.84L103.248 1643.6V2866.99ZM1213.78 2121.54C1193.94 2132.96 1168.69 2153.4 1157.27 2166.62C1145.24 2179.85 1127.8 2208.1 1116.98 2229.75C1100.15 2265.82 1098.34 2273.03 1098.34 2331.95C1098.34 2389.66 1100.15 2398.07 1116.98 2434.14C1127.2 2455.19 1144.64 2483.44 1156.06 2496.07C1167.49 2509.29 1187.33 2527.33 1200.56 2535.74C1213.78 2544.76 1240.24 2557.99 1259.48 2565.2C1292.55 2577.83 1303.37 2578.43 1527.04 2578.43H1759.73C1786.79 2551.37 1786.79 2550.17 1786.79 2333.15V2115.52L1756.73 2085.47C1374.92 2086.07 1294.35 2088.47 1275.71 2093.28C1260.68 2096.89 1233.03 2109.51 1213.78 2121.54ZM1889.01 2510.49C1889.01 2526.12 1887.2 2547.77 1884.8 2558.59L1879.99 2578.43H2183.63V2680.63H1786.79V2776.81L2680.87 2773.81C2728.37 2743.75 2747.01 2725.71 2757.83 2707.68C2775.87 2678.82 2775.87 2677.62 2777.68 2580.23L2778.88 2482.24H1889.01V2510.49Z" fill="#95C45A"/>
<path d="M1784.99 1891.18L1784.99 1890.69L1783.18 1785.48H2189.04V2188.27H1891.41L1887.8 2141.98C1886 2112.52 1879.99 2086.07 1872.17 2071.04C1865.56 2057.81 1849.32 2037.37 1836.7 2025.35C1823.47 2013.93 1807.23 2002.5 1799.42 2000.1C1786.21 1995.9 1786.19 1994.09 1784.99 1891.18Z" fill="#B8EB86"/>
<path fill-rule="evenodd" clip-rule="evenodd" d="M610.716 448.474C627.551 450.278 650.399 456.891 661.823 462.902C673.247 468.914 691.285 482.741 701.507 494.163C712.329 504.984 725.557 523.621 731.57 535.043C738.785 548.87 742.393 569.31 742.393 595.16C742.393 622.213 738.785 642.052 730.969 658.283C724.355 671.509 710.526 690.145 700.905 700.365C690.684 709.984 672.045 723.811 658.817 730.424C641.981 738.239 622.741 741.846 595.684 741.846C567.425 741.846 549.988 738.239 532.551 729.221C519.323 722.007 500.083 707.579 489.861 696.157C479.039 685.336 467.013 668.503 461.602 658.283C456.792 648.664 450.779 629.427 448.374 616.201C445.368 599.97 447.773 580.732 454.387 556.084C462.203 530.234 472.425 512.198 489.861 494.163C506.096 476.729 525.937 464.105 547.583 456.289C571.633 447.873 589.07 445.468 610.716 448.474V448.474ZM547.583 595.16C547.583 606.582 552.994 618.606 562.614 628.225C572.235 637.843 584.26 643.254 597.488 643.254C609.513 643.254 621.538 638.445 629.956 630.028C638.374 621.612 643.785 608.386 643.785 596.964C643.785 583.738 638.975 572.316 628.754 562.096C619.133 552.477 607.108 547.066 595.684 547.066C583.659 547.066 571.633 552.477 562.614 562.096C554.197 570.512 548.184 583.738 547.583 595.16ZM243.944 794.148C253.564 793.547 275.811 797.755 292.045 802.564C308.88 807.374 331.127 818.195 341.95 826.611C352.172 835.028 367.804 853.063 376.222 867.491C384.64 881.318 393.058 907.168 394.861 925.805C397.868 948.048 396.064 967.887 390.051 985.922C385.241 1000.95 374.418 1022.59 366.001 1034.02C357.583 1045.44 335.937 1062.87 317.899 1072.49C292.646 1086.92 278.817 1090.53 249.956 1089.92C230.115 1089.92 204.26 1085.72 192.836 1080.91C181.412 1076.1 161.57 1062.87 148.944 1051.45C136.317 1040.03 120.684 1020.19 114.071 1006.96C106.855 991.332 102.646 969.69 102.646 945.643C102.646 924.602 106.855 897.55 112.267 885.526C117.077 872.902 129.703 853.664 140.526 842.843C151.349 831.421 167.583 818.195 176.602 813.386C185.621 807.975 200.653 801.963 209.672 798.957C218.691 796.553 234.324 794.148 243.944 794.148ZM198.849 943.84C198.849 955.262 204.26 967.286 213.881 976.904C223.501 986.523 235.526 991.934 246.95 991.934C257.172 991.934 271.602 985.922 280.621 978.708C290.241 969.69 296.254 957.667 296.855 945.643C297.456 932.418 293.248 922.198 283.026 910.775C272.805 900.555 261.982 895.746 248.153 895.746C235.526 895.746 223.501 901.157 213.881 910.775C205.463 919.192 199.45 932.418 198.849 943.84V943.84Z" fill="#95C45A"/>
<path d="M2279.23 2188.27V1986.87V1785.48H2682.08V2188.27H2279.23Z" fill="#B8EB86"/>
<path d="M1231.82 2227.94C1240.84 2218.32 1261.29 2204.5 1278.12 2196.08C1302.77 2184.06 1314.8 2182.25 1347.27 2184.06C1370.72 2185.26 1395.97 2191.27 1410.4 2199.09C1423.63 2205.7 1441.67 2218.93 1450.68 2228.54C1459.7 2237.56 1472.33 2257.4 1478.94 2272.43C1486.76 2289.26 1491.57 2312.11 1491.57 2332.55C1491.57 2354.59 1486.96 2375.63 1477.74 2395.67C1469.92 2412.5 1452.49 2435.35 1439.26 2446.77C1426.03 2458.19 1404.39 2471.42 1391.76 2475.02C1379.13 2479.23 1353.28 2482.84 1335.24 2482.84C1312.99 2482.84 1293.75 2478.03 1275.72 2469.01C1260.68 2461.8 1239.04 2444.97 1227.61 2431.14C1215.59 2417.91 1202.36 2396.27 1198.75 2383.05C1194.55 2370.42 1190.94 2346.37 1190.94 2329.54C1190.94 2312.11 1196.35 2288.06 1203.56 2272.43C1210.18 2257.4 1222.8 2237.56 1231.82 2227.94Z" fill="#B8EB86"/>
<path fill-rule="evenodd" clip-rule="evenodd" d="M1439.86 198.387C1449.48 198.387 1462.71 205.601 1473.53 216.422C1488.56 231.451 1490.97 238.064 1488.56 254.296C1486.76 264.516 1481.95 277.14 1477.74 281.348C1473.53 285.557 1463.91 291.568 1455.49 293.973C1445.87 297.58 1433.85 296.378 1420.62 290.967C1410.4 286.158 1398.98 275.938 1395.37 267.521C1391.76 259.105 1389.35 248.284 1389.96 242.873C1389.96 238.064 1397.77 225.439 1407.39 215.821C1417.61 205.601 1430.84 198.387 1439.86 198.387ZM1638.28 198.387C1647.9 198.387 1661.13 205.601 1671.95 216.422C1686.98 231.451 1689.39 238.064 1686.98 254.296C1685.18 264.516 1680.37 277.14 1676.16 281.348C1671.95 285.557 1662.33 291.568 1653.91 293.973C1644.29 297.58 1632.27 296.378 1619.04 290.967C1608.82 286.158 1597.39 275.938 1593.79 267.521C1590.18 259.105 1587.77 248.284 1588.37 242.873C1588.37 238.064 1596.19 225.439 1605.81 215.821C1616.03 205.601 1629.26 198.387 1638.28 198.387ZM2030.91 499.574C2071.19 498.973 2117.49 502.58 2145.15 508.591C2171 514.002 2212.49 526.025 2237.14 535.043C2261.79 544.662 2303.88 566.304 2330.34 583.738C2356.79 601.172 2395.87 631.23 2416.92 651.67C2437.96 672.11 2471.03 712.389 2490.27 742.447C2510.11 771.905 2534.16 816.993 2543.18 841.641C2552.8 866.289 2564.83 907.77 2570.24 933.019C2575.65 958.869 2579.86 1008.17 2579.86 1043.03C2579.86 1077.9 2575.65 1127.2 2570.24 1152.45C2565.43 1178.3 2552.8 1219.78 2542.58 1244.43C2532.96 1269.07 2514.92 1305.75 2502.9 1325.58C2490.87 1345.42 2464.42 1380.29 2444.58 1403.14C2424.73 1426.58 2389.86 1459.04 2366.41 1476.48C2342.96 1493.91 2305.68 1517.36 2282.23 1528.78C2258.78 1540.2 2226.32 1554.03 2210.08 1560.04C2193.25 1565.45 2160.18 1573.87 2136.13 1578.68C2112.68 1583.49 2067.58 1587.09 2036.92 1587.09C2006.85 1587.09 1965.37 1584.09 1945.53 1581.08C1925.68 1577.47 1892.01 1569.06 1870.37 1561.84C1848.72 1555.23 1815.05 1541.4 1795.21 1531.18C1775.37 1521.57 1742.9 1502.33 1723.06 1488.5C1703.22 1475.28 1670.75 1448.22 1650.91 1427.78C1630.46 1407.94 1603.41 1375.48 1590.18 1355.64C1576.35 1335.8 1557.71 1304.54 1548.69 1286.51C1539.67 1268.47 1525.84 1236.01 1518.63 1214.37C1511.41 1192.73 1501.79 1153.65 1497.58 1127.2C1492.77 1096.54 1490.97 1055.06 1493.37 1012.97C1495.18 976.303 1501.19 929.412 1506.6 907.77C1512.61 886.127 1529.45 841.641 1545.08 808.576C1561.32 774.309 1589.58 728.62 1610.62 701.568C1631.06 676.318 1663.53 642.653 1682.17 626.421C1701.41 610.791 1733.28 587.946 1753.12 575.923C1772.96 563.899 1809.64 545.864 1834.29 535.644C1858.94 526.025 1898.03 514.002 1921.47 509.193C1944.92 503.782 1994.23 499.574 2030.91 499.574V499.574ZM1936.51 607.785C1918.47 611.392 1886 621.612 1864.35 630.629C1842.71 639.647 1809.04 658.283 1789.2 671.509C1769.35 684.735 1738.69 709.984 1720.65 728.019C1702.61 746.054 1676.16 779.72 1661.13 802.564C1646.1 825.409 1626.25 865.687 1616.63 890.937C1607.61 916.787 1596.79 961.274 1593.18 990.731C1588.37 1028.61 1588.37 1056.86 1593.18 1094.13C1596.79 1122.39 1605.21 1161.46 1611.82 1181.3C1619.04 1201.14 1634.67 1236.61 1646.7 1259.46C1661.73 1288.91 1685.18 1317.77 1723.06 1355.64C1760.94 1393.52 1789.8 1416.96 1819.26 1431.99C1842.71 1444.01 1877.58 1459.65 1897.42 1466.86C1917.27 1473.47 1956.35 1481.89 1984.61 1485.5C2023.09 1490.31 2049.54 1490.31 2089.83 1484.89C2119.29 1481.29 2164.39 1470.47 2189.04 1461.45C2213.69 1452.43 2252.77 1432.59 2276.22 1417.56C2299.67 1402.53 2332.74 1376.08 2350.78 1358.05C2368.21 1340.01 2394.07 1309.35 2407.3 1289.51C2420.52 1269.68 2437.96 1239.62 2445.18 1223.38C2452.39 1206.55 2463.21 1175.89 2469.23 1154.25C2477.04 1126.6 2480.05 1094.13 2480.05 1043.03C2480.05 993.136 2476.44 958.869 2469.23 931.816C2463.21 910.174 2449.99 873.503 2438.56 850.658C2427.74 827.814 2404.29 789.94 2386.25 767.095C2368.82 744.251 2335.75 710.585 2312.3 693.151C2288.85 675.116 2251.57 651.069 2228.12 640.248C2204.67 628.826 2169.8 615.6 2149.96 610.791C2130.11 605.38 2086.82 599.97 2053.75 598.166C2020.68 596.964 1988.22 596.964 1981.6 598.767C1974.99 599.97 1954.54 604.178 1936.51 607.785V607.785ZM199.451 2380.04L298.058 2383.65L301.065 2777.41L496.476 2780.42L499.482 2879.61H389.451C287.837 2879.61 278.217 2879.01 252.963 2866.39C233.122 2856.17 222.299 2845.35 212.077 2825.51C198.85 2799.06 198.85 2794.85 198.85 2589.25L199.451 2380.04ZM1985.21 697.359H2087.42V793.547L2109.67 797.154C2122.3 798.957 2141.54 805.57 2153.56 811.582C2164.99 816.993 2184.23 832.623 2195.65 845.248C2207.68 857.872 2220.3 878.312 2223.91 889.734C2227.52 901.157 2231.73 917.989 2237.74 943.84H2186.63C2145.15 943.84 2135.53 942.036 2135.53 934.822C2135.53 930.013 2128.31 919.192 2120.49 910.775C2106.06 896.347 2101.85 895.746 2035.72 895.746C1969.58 895.746 1965.37 896.347 1951.54 910.775C1943.72 919.192 1937.11 931.215 1937.11 937.828C1937.11 944.441 1940.72 957.667 1946.13 967.887C1950.94 977.505 1961.16 987.124 1968.37 988.928C1975.59 990.13 2014.67 992.535 2054.35 993.136C2112.68 994.939 2130.72 997.945 2150.56 1008.17C2163.78 1014.78 2184.23 1031.01 2195.65 1043.63C2207.68 1056.26 2220.9 1077.9 2225.11 1091.13C2229.92 1104.35 2233.53 1127.2 2233.53 1142.23C2234.13 1157.26 2229.32 1181.3 2223.91 1196.33C2217.9 1212.56 2202.87 1233.6 2186.63 1248.63C2167.39 1266.67 2148.75 1277.49 2086.82 1295.53L2087.42 1388.71H1985.21V1295.53L1950.34 1285.31C1931.09 1279.89 1905.24 1266.07 1892.01 1254.65C1878.78 1243.82 1861.35 1222.78 1854.13 1207.75C1846.92 1193.33 1840.91 1172.29 1840.91 1142.23H1889.01C1935.91 1142.23 1937.11 1142.83 1941.32 1157.86C1943.72 1166.87 1951.54 1177.7 1958.15 1182.51C1965.97 1187.92 1990.62 1190.32 2037.52 1190.32C2102.46 1190.32 2106.66 1189.72 2120.49 1175.29C2129.51 1166.27 2135.53 1153.05 2135.53 1142.23C2135.53 1130.8 2129.51 1118.18 2120.49 1109.16C2106.06 1095.34 2101.25 1094.13 2045.34 1094.13C2012.27 1094.13 1971.98 1091.13 1956.35 1088.12C1940.72 1085.12 1916.06 1074.29 1902.23 1064.07C1888.4 1053.85 1869.16 1034.62 1860.15 1020.79C1847.52 1001.55 1843.31 986.523 1841.51 956.464C1840.3 934.221 1842.11 907.168 1845.72 895.746C1849.32 884.324 1862.55 862.682 1875.18 848.254C1887.8 833.825 1907.04 816.993 1919.07 810.981C1930.49 805.57 1949.73 798.957 1985.21 793.547V697.359Z" fill="#95C45A"/>
</svg>
