<svg width="3071" height="3078" viewBox="0 0 3071 3078" fill="none" xmlns="http://www.w3.org/2000/svg">
<circle cx="1536" cy="1539" r="546" fill="#B8EB86"/>
<path fill-rule="evenodd" clip-rule="evenodd" d="M2274.08 0.0758759C2336.77 -0.544798 2374 2.55857 2423.04 12.4894C2459.03 19.9375 2511.79 34.213 2540.96 44.1438C2570.13 54.6952 2610.47 71.4534 2630.96 81.3842C2651.44 91.9357 2691.78 115.521 2720.95 134.142C2752.6 154.624 2800.39 194.968 2839.5 234.691C2879.22 273.793 2919.56 321.585 2940.04 353.24C2958.66 382.411 2982.25 422.755 2992.8 443.237C3002.73 463.72 3019.49 504.063 3030.04 533.235C3039.97 562.407 3053.62 609.578 3059.83 638.75C3068.52 677.852 3071 718.196 3071 793.918C3071 869.641 3068.52 909.984 3059.83 949.087C3053.62 978.259 3039.97 1025.43 3030.04 1054.6C3019.49 1083.77 3002.73 1124.12 2992.8 1144.6C2982.25 1165.08 2958.66 1205.43 2940.04 1234.6C2919.56 1266.25 2879.22 1314.04 2839.5 1353.15C2800.39 1392.87 2752.6 1433.21 2720.95 1453.7C2691.78 1472.32 2651.44 1495.9 2630.96 1506.45C2610.47 1516.38 2572.61 1532.52 2547.17 1541.83C2521.72 1550.52 2477.03 1563.55 2447.86 1570.38C2418.69 1576.59 2362.83 1584.04 2323.73 1585.9C2280.91 1588.38 2228.77 1587.14 2193.39 1582.8C2161.12 1578.45 2123.26 1572.86 2084.78 1562.93L2080.44 1512.04C2077.95 1484.11 2076.71 1460.52 2077.33 1459.9C2077.95 1458.66 2100.92 1463.63 2128.23 1470.45C2155.53 1477.9 2207.05 1484.73 2243.05 1487.21C2279.67 1489.07 2331.18 1487.83 2360.97 1483.49C2390.14 1479.76 2436.07 1471.07 2463.38 1464.25C2490.69 1456.8 2543.44 1436.32 2581.3 1417.7C2619.16 1399.7 2666.95 1371.77 2688.68 1356.25C2713.5 1337.63 2727.16 1323.35 2727.16 1315.28C2727.16 1308.46 2722.81 1281.15 2717.23 1254.46C2712.26 1228.39 2699.85 1188.67 2690.54 1166.32C2681.85 1143.98 2661.37 1107.98 2645.85 1085.64C2629.71 1063.29 2603.65 1032.26 2586.89 1016.74C2570.13 1001.22 2538.48 976.397 2475.79 936.053L2459.65 972.052C2450.97 991.913 2432.35 1018.6 2419.31 1032.26C2406.28 1045.29 2380.21 1062.67 2329.94 1085.64V1389.77H2230.63V1085.64L2197.74 1070.74C2180.36 1062.67 2154.29 1045.29 2141.26 1032.26C2128.23 1018.6 2109.61 991.913 2084.78 936.053L2044.44 962.121C2022.09 976.397 1989.2 1002.46 1970.58 1019.84C1952.58 1037.22 1926.51 1067.64 1889.27 1122.88L1859.48 1101.15C1843.34 1089.36 1825.35 1076.33 1819.14 1071.98C1809.21 1064.53 1809.83 1061.43 1830.93 1029.77C1843.97 1011.15 1872.52 977.017 1894.86 954.673C1917.2 932.329 1955.06 900.674 1979.27 885.157C2003.47 869.641 2036.37 851.02 2053.75 843.572C2070.5 836.124 2086.02 829.297 2087.88 828.055C2089.74 826.814 2077.33 810.677 2060.57 792.677C2044.44 774.677 2023.96 746.747 2015.89 729.989C2007.82 713.851 1996.65 684.68 1991.68 664.818C1986.72 645.577 1982.37 613.923 1982.37 595.303C1982.37 576.682 1986.72 544.407 1992.3 523.925C1997.27 503.443 2010.92 470.547 2021.47 450.065C2032.64 430.203 2056.85 399.169 2075.47 381.17C2094.09 363.791 2124.5 341.447 2141.88 332.757C2159.88 323.447 2190.91 311.654 2210.15 306.689C2230.01 301.724 2261.67 297.379 2280.29 297.379C2298.91 297.379 2330.56 301.724 2349.8 306.689C2369.66 311.654 2400.69 323.447 2418.07 332.757C2436.07 341.447 2466.48 363.791 2485.1 381.17C2503.72 399.169 2527.93 430.203 2539.1 450.065C2549.65 470.547 2563.3 503.443 2568.27 523.925C2573.86 544.407 2578.2 576.682 2578.2 595.303C2578.2 613.923 2573.86 645.577 2568.89 664.818C2563.93 684.68 2552.75 713.851 2544.68 729.989C2536.62 746.747 2516.13 774.677 2500 792.677C2483.24 810.677 2470.83 826.193 2472.69 827.435C2474.55 828.676 2498.14 841.09 2525.44 854.744C2552.75 867.779 2596.2 895.709 2621.65 916.191C2647.09 936.053 2682.47 970.811 2699.85 993.155C2717.85 1014.88 2740.81 1048.39 2751.98 1067.02C2763.16 1085.64 2778.67 1117.91 2786.12 1138.39C2794.19 1158.87 2804.74 1189.29 2817.15 1237.7L2843.84 1200.46C2858.74 1179.98 2885.42 1132.81 2904.04 1094.95C2922.66 1057.08 2943.15 1004.33 2949.97 977.017C2957.42 949.708 2965.49 907.502 2969.21 883.916C2972.32 860.331 2975.42 819.366 2975.42 793.918C2975.42 768.471 2972.32 727.506 2969.21 703.921C2965.49 680.335 2956.8 638.129 2949.97 610.819C2943.15 583.51 2924.53 534.476 2909.63 502.201C2894.11 469.926 2868.05 423.996 2852.53 399.79C2836.39 376.205 2799.77 332.757 2770.6 303.586C2741.43 274.414 2697.99 237.794 2674.4 222.277C2650.2 206.14 2610.47 183.175 2585.65 170.761C2561.44 158.348 2519.24 141.59 2492.55 132.28C2466.48 123.59 2418.07 112.418 2385.8 108.073C2353.52 103.108 2305.73 98.7631 2280.29 98.7631C2254.84 98.7631 2207.05 103.108 2174.77 108.073C2142.5 112.418 2093.47 124.211 2066.16 132.9C2038.85 142.21 1992.92 161.451 1963.75 176.347C1934.58 191.244 1891.76 217.933 1867.55 235.932C1843.34 253.932 1804.86 288.689 1780.66 312.896C1756.45 337.102 1724.18 376.205 1708.04 400.411C1692.53 423.996 1666.46 469.926 1651.56 502.201C1636.05 534.476 1618.05 582.268 1610.6 607.716C1603.77 633.164 1595.08 679.094 1590.74 710.127C1586.39 743.023 1585.15 792.677 1587.64 831.159C1589.5 867.158 1596.32 918.674 1603.15 945.984C1609.98 973.293 1614.94 996.258 1614.32 996.879C1613.7 997.5 1590.12 996.258 1511.29 989.431L1505.09 964.604C1501.98 950.949 1495.78 914.329 1491.43 883.916C1487.09 849.158 1485.85 799.504 1488.33 753.574C1490.19 712.61 1497.64 655.508 1503.85 626.336C1510.67 597.165 1523.71 552.476 1532.4 527.028C1541.71 501.581 1559.08 460.616 1571.5 437.031C1583.29 413.445 1606.88 372.48 1624.25 347.033C1641.63 321.585 1685.08 270.69 1721.08 234.691C1757.07 198.692 1807.97 155.244 1833.41 137.866C1858.86 120.487 1899.2 96.9011 1923.41 85.1083C1947.61 72.6948 1987.96 55.3159 2013.4 46.0058C2038.85 36.6957 2089.12 23.0408 2125.12 14.9721C2174.15 3.79992 2211.39 0.0758759 2274.08 0.0758759V0.0758759ZM2190.29 419.031C2176.64 425.238 2154.29 441.996 2140.64 455.651C2126.98 469.306 2108.99 494.133 2100.3 511.512C2088.5 536.959 2085.4 552.476 2085.4 595.303C2084.78 643.715 2086.64 651.163 2106.5 687.783C2118.29 709.507 2136.91 734.334 2146.84 743.023C2156.78 751.092 2179.12 765.367 2196.5 774.057C2222.56 787.712 2235.6 790.194 2280.29 790.194C2324.97 790.194 2338.01 787.712 2364.07 774.057C2380.83 765.367 2403.8 751.092 2413.73 743.023C2423.66 734.334 2442.28 709.507 2454.07 687.783C2473.93 651.163 2475.79 643.715 2475.17 595.303C2475.17 550.614 2472.69 537.58 2459.03 511.512C2450.35 494.133 2436.07 472.409 2428 461.858C2419.31 451.306 2395.73 433.927 2375.87 423.376C2347.32 407.238 2329.32 402.273 2295.8 400.411C2271.6 398.549 2243.67 399.169 2233.74 402.273C2223.81 404.756 2203.95 412.204 2190.29 419.031ZM2185.33 905.64C2183.46 907.502 2186.57 919.915 2192.77 933.57C2198.36 947.225 2213.26 965.224 2225.05 973.914C2241.18 985.707 2253.6 989.431 2280.29 989.431C2306.97 989.431 2319.39 985.707 2335.52 973.914C2347.32 965.224 2362.21 947.225 2367.8 933.57C2378.35 909.984 2378.35 908.122 2368.42 903.157C2362.83 900.054 2329.94 896.95 2295.8 895.709C2261.67 894.468 2223.81 895.709 2211.39 898.192C2198.98 900.674 2187.19 903.778 2185.33 905.64V905.64ZM784.508 1490.31C816.782 1489.69 862.71 1492.18 886.916 1495.28C910.501 1499 942.775 1504.59 986.22 1514.52L990.565 1565.42C993.048 1593.35 994.289 1616.93 993.668 1617.55C993.048 1618.17 970.083 1613.21 942.775 1606.38C915.466 1599.55 863.951 1592.73 827.953 1590.86C789.473 1588.38 739.821 1589.62 706.926 1593.97C675.893 1598.31 629.965 1607 604.518 1613.83C579.071 1620.66 526.936 1641.14 489.697 1659.76C451.837 1677.76 401.564 1707.55 377.979 1725.55C353.773 1743.55 314.672 1778.31 291.087 1802.51C266.882 1826.72 234.608 1865.82 219.091 1890.03C202.954 1913.61 179.99 1953.34 167.577 1977.54C155.164 2002.37 138.406 2044.58 129.096 2070.65C120.407 2097.33 109.235 2145.75 104.891 2178.02C99.9254 2210.3 95.5808 2259.33 95.5808 2286.64C95.5808 2313.95 99.9254 2361.74 104.891 2392.15C109.856 2422.57 121.028 2470.36 129.717 2497.67C139.027 2524.98 158.267 2570.91 173.163 2600.08C188.058 2629.25 212.264 2669.6 253.227 2727.32L263.778 2690.08C269.364 2669.6 279.915 2637.94 287.363 2619.94C294.19 2602.56 311.569 2569.05 325.844 2545.46C340.119 2522.5 364.324 2488.98 380.461 2470.36C395.978 2451.74 428.252 2421.95 452.457 2402.71C476.042 2384.09 518.247 2358.02 545.556 2344.36C572.864 2330.71 596.449 2318.29 598.311 2317.05C600.173 2315.81 587.76 2300.29 571.002 2282.3C554.865 2264.3 534.384 2236.37 526.315 2219.61C518.247 2203.47 507.075 2174.3 502.11 2154.44C497.145 2135.2 492.8 2103.54 492.8 2084.92C492.8 2066.3 497.145 2034.03 502.73 2013.54C507.696 1993.06 521.35 1960.17 531.901 1939.68C543.073 1919.82 567.279 1888.79 585.898 1870.79C604.518 1853.41 634.93 1831.07 652.308 1822.38C670.307 1813.07 701.34 1801.27 720.58 1796.31C740.441 1791.34 772.095 1787 790.714 1787C809.334 1787 840.987 1791.34 860.228 1796.31C880.089 1801.27 911.121 1813.07 928.5 1822.38C946.499 1831.07 976.911 1853.41 995.53 1870.79C1014.15 1888.79 1038.36 1919.82 1049.53 1939.68C1060.08 1960.17 1073.73 1993.06 1078.7 2013.54C1084.28 2034.03 1088.63 2066.3 1088.63 2084.92C1088.63 2103.54 1084.28 2135.2 1079.32 2154.44C1074.35 2174.3 1063.18 2203.47 1055.11 2219.61C1047.04 2236.37 1026.56 2264.3 1010.43 2282.3C993.668 2300.29 981.255 2315.81 983.117 2317.05C984.979 2318.29 1007.32 2329.47 1032.77 2341.88C1058.22 2354.91 1099.8 2380.98 1125.25 2400.22C1150.69 2420.09 1186.69 2453.6 1205.31 2475.95C1223.31 2498.29 1248.76 2534.29 1261.79 2556.63C1274.83 2578.98 1290.96 2612.49 1298.41 2631.11C1305.24 2649.73 1315.17 2678.91 1327.58 2727.32L1354.27 2690.08C1369.16 2669.6 1395.85 2622.42 1414.47 2584.56C1433.09 2546.7 1453.57 2493.95 1461.02 2466.64C1467.85 2439.33 1476.54 2393.4 1480.26 2364.22C1484.61 2333.81 1485.85 2283.54 1483.37 2246.3C1481.5 2210.3 1474.68 2158.78 1467.85 2131.47C1461.02 2104.16 1456.06 2081.2 1456.68 2080.58C1457.3 2079.96 1480.88 2081.2 1559.71 2088.02L1565.91 2112.85C1569.64 2126.51 1575.22 2164.37 1579.57 2196.64C1583.91 2232.02 1585.15 2284.16 1582.67 2326.98C1580.81 2366.09 1573.36 2421.95 1567.15 2451.12C1560.33 2480.29 1547.29 2524.98 1538.6 2550.43C1529.29 2575.87 1513.16 2613.74 1503.23 2634.22C1492.67 2654.7 1469.09 2695.04 1450.47 2724.22C1429.99 2755.87 1389.65 2803.66 1349.92 2842.76C1310.82 2882.49 1263.03 2922.83 1231.38 2943.31C1202.21 2961.93 1161.87 2985.52 1141.38 2996.07C1120.9 3006 1080.56 3022.76 1051.39 3033.31C1022.22 3043.24 969.463 3057.52 933.465 3064.97C887.536 3074.28 845.332 3078 790.714 3078C736.097 3078 693.892 3074.28 647.964 3064.97C611.966 3057.52 559.21 3043.24 530.039 3033.31C500.868 3022.76 460.526 3006 440.044 2996.07C419.563 2985.52 379.22 2961.93 350.049 2943.31C318.396 2922.83 270.605 2882.49 231.504 2842.76C191.782 2803.66 151.44 2755.87 130.958 2724.22C112.339 2695.04 88.7536 2654.7 78.2025 2634.22C68.272 2613.74 51.5143 2573.39 40.9632 2544.22C31.0327 2515.05 17.3783 2467.88 11.1718 2438.71C2.48262 2399.6 0 2359.26 0 2283.54C0 2207.81 2.48262 2167.47 11.1718 2128.37C17.3783 2099.2 31.0327 2052.03 40.9632 2022.85C51.5143 1993.68 69.5133 1950.86 81.9264 1926.65C93.7189 1902.44 117.304 1862.1 134.682 1836.65C152.06 1811.2 195.506 1760.31 231.504 1724.31C267.502 1688.31 318.396 1644.86 343.843 1627.48C369.29 1610.11 409.632 1586.52 433.838 1574.73C457.423 1562.31 500.868 1544.31 530.039 1533.76C559.21 1523.83 605.138 1510.8 632.447 1505.83C659.756 1500.25 692.03 1494.66 703.823 1493.42C715.615 1492.18 752.234 1490.94 784.508 1490.31V1490.31ZM700.719 1908.65C687.065 1914.86 664.721 1931.61 651.067 1945.27C637.413 1958.92 619.414 1983.75 610.724 2001.13C598.932 2026.58 595.829 2042.09 595.829 2084.92C595.208 2133.33 597.07 2140.78 616.931 2177.4C628.723 2199.13 646.722 2223.95 657.273 2232.64C667.204 2240.71 689.548 2254.99 706.926 2263.68C732.993 2277.33 746.027 2279.81 790.714 2279.81C835.401 2279.81 848.435 2277.33 874.503 2263.68C891.26 2254.99 913.604 2240.71 924.155 2232.64C934.085 2223.95 952.705 2199.13 964.498 2177.4C984.359 2140.78 986.221 2133.33 985.6 2084.92C985.6 2040.23 983.117 2027.2 969.463 2001.13C960.774 1983.75 946.499 1961.41 938.43 1951.48C929.741 1941.55 906.156 1923.55 886.295 1912.99C857.745 1896.86 839.746 1891.89 806.231 1890.03C782.025 1888.17 754.096 1888.79 744.165 1891.89C733.614 1894.37 714.374 1901.82 700.719 1908.65ZM703.823 2393.4C703.823 2396.5 721.822 2420.71 744.165 2448.02C766.509 2475.33 786.99 2497.67 790.094 2497.67C793.197 2497.67 813.678 2475.33 836.643 2448.02C858.986 2420.71 877.606 2397.12 877.606 2395.26C877.606 2393.4 864.572 2390.29 848.435 2387.19C831.677 2384.71 801.886 2383.47 781.404 2384.09C760.923 2384.09 734.855 2385.95 723.684 2387.19C713.132 2387.81 703.823 2390.91 703.823 2393.4ZM618.172 2531.81C624.379 2570.91 628.723 2609.39 629.344 2616.84C629.344 2624.91 631.827 2631.11 635.551 2631.11C638.654 2631.11 658.515 2618.7 678.996 2603.18C699.478 2587.67 716.856 2574.01 716.856 2571.53C717.477 2569.67 695.133 2541.74 667.825 2509.46C640.516 2477.81 615.69 2452.98 613.207 2456.08C610.104 2458.57 612.586 2492.7 618.172 2531.81V2531.81ZM866.434 2570.29C865.814 2572.77 881.95 2587.67 902.432 2603.18C922.914 2618.7 942.154 2631.11 945.878 2631.11C949.602 2631.11 952.084 2624.91 952.084 2616.84C952.705 2609.39 956.429 2570.91 961.394 2531.81C965.739 2492.7 967.601 2458.57 965.118 2456.7C962.636 2454.22 940.292 2477.81 914.845 2508.84C889.398 2539.88 867.675 2567.18 866.434 2570.29V2570.29ZM416.459 2587.67C404.046 2606.29 386.668 2639.8 377.358 2662.15C368.669 2684.49 357.497 2722.97 352.532 2747.18C347.567 2772.01 343.843 2798.08 343.843 2804.9C343.843 2812.97 358.738 2827.87 388.53 2848.97C413.356 2866.35 452.457 2889.94 475.422 2901.73C499.006 2913.52 532.522 2928.42 549.9 2935.24C567.899 2941.45 606.38 2953.24 635.551 2960.07C664.721 2966.9 717.477 2974.35 753.475 2976.21C790.714 2978.69 840.987 2977.45 871.399 2973.11C900.57 2969.38 946.499 2960.69 973.807 2953.87C1001.12 2946.42 1053.87 2925.93 1091.73 2907.31C1128.97 2889.31 1177.38 2861.38 1198.48 2845.87C1223.93 2827.25 1237.59 2812.97 1237.59 2804.9C1237.59 2798.08 1233.86 2772.01 1228.9 2747.18C1224.55 2722.97 1212.14 2683.25 1202.21 2659.04C1192.9 2634.84 1171.8 2597.6 1155.66 2575.25C1140.14 2552.91 1114.7 2522.5 1099.18 2506.98C1083.66 2491.46 1070.01 2481.53 1068.15 2485.26C1066.91 2488.98 1057.6 2564.7 1047.67 2654.7C1034.01 2776.97 1027.8 2816.7 1021.6 2814.21C1017.87 2812.35 963.877 2773.25 902.432 2727.32L790.714 2643.53C617.552 2773.25 563.555 2812.35 559.21 2814.21C553.624 2816.7 548.038 2777.59 536.246 2652.84C526.315 2552.91 517.626 2486.5 513.282 2485.26C509.558 2483.39 491.559 2498.29 472.939 2518.15C454.319 2537.39 428.872 2569.05 416.459 2587.67V2587.67Z" fill="#95C45A"/>
<path d="M914.846 232.208C940.293 223.518 981.256 212.967 1004.84 208.002C1035.87 201.795 1102.9 199.312 1436.2 198.071V250.828L1298.41 289.931C1222.07 311.654 1138.9 337.723 1113.46 347.033C1088.01 356.963 1044.56 379.308 1017.25 397.307C989.945 415.307 949.603 446.341 928.501 467.443C906.778 488.546 876.366 522.063 860.849 542.545C845.333 563.027 822.369 600.888 809.335 626.336C796.301 651.784 778.923 695.231 770.234 722.541C761.544 749.85 752.855 792.056 750.373 815.642C748.511 839.227 745.407 866.537 741.063 893.226H815.541C856.505 893.226 890.02 894.467 890.02 896.329C890.02 898.191 823.61 987.569 742.925 1094.95C661.619 1202.94 593.968 1291.08 592.106 1291.08C590.244 1291.08 522.592 1202.94 441.907 1094.95C360.601 987.569 294.191 898.191 294.191 896.329C294.191 894.467 327.707 893.226 443.149 893.226V852.882C443.149 830.538 447.493 790.815 452.458 764.126C457.424 738.057 468.595 695.231 477.285 669.783C485.974 644.336 502.111 605.233 513.283 582.889C524.454 560.545 543.695 527.028 556.108 508.408C568.521 489.788 593.968 456.892 611.967 435.789C629.966 414.065 661.619 383.032 682.101 365.653C702.582 348.274 734.856 323.447 753.476 311.034C772.096 298.62 805.611 279.379 827.955 268.207C850.298 257.035 889.399 240.897 914.846 232.208Z" fill="#B8EB86"/>
<path d="M2179.74 2181.13C2179.12 2179.26 2244.91 2089.89 2326.22 1982.51C2407.52 1875.13 2475.79 1787 2478.28 1787C2480.14 1786.38 2548.41 1874.51 2629.09 1982.51C2710.4 2089.89 2776.81 2179.26 2776.81 2181.13C2776.81 2182.99 2743.92 2184.23 2630.96 2184.23L2626.61 2244.43C2624.13 2277.95 2616.68 2326.36 2610.48 2351.81C2603.65 2377.26 2590.61 2417.6 2581.3 2441.81C2571.99 2466.01 2552.75 2504.5 2539.1 2528.7C2525.45 2552.91 2501.24 2588.91 2485.72 2609.39C2470.21 2629.87 2442.9 2660.29 2426.14 2677.66C2408.76 2694.42 2378.35 2721.73 2357.87 2737.25C2337.39 2752.77 2301.39 2776.97 2277.18 2790.63C2252.98 2804.28 2214.5 2823.52 2190.29 2832.83C2166.09 2842.14 2125.74 2855.8 2100.3 2862.63C2058.09 2874.42 2032.65 2875.66 1634.81 2879.38V2826.63L1773.21 2787.52C1848.93 2765.8 1934.58 2739.11 1963.75 2727.32C1992.92 2715.53 2035.75 2692.56 2059.95 2676.42C2084.16 2660.91 2122.64 2629.25 2146.23 2606.91C2169.19 2584.56 2200.22 2549.19 2215.12 2528.7C2229.39 2508.22 2251.12 2472.22 2263.53 2448.02C2275.32 2423.81 2292.08 2382.22 2300.77 2354.91C2309.46 2327.6 2318.15 2286.02 2320.63 2261.81C2322.49 2237.61 2325.59 2210.92 2329.94 2184.23H2255.46C2214.5 2184.23 2180.36 2182.99 2179.74 2181.13Z" fill="#B8EB86"/>
<path d="M1485.85 1290.46V1240.8V1191.15H1585.15V1240.8C1585.15 1283.63 1586.39 1290.46 1595.7 1290.46C1601.91 1290.46 1618.05 1294.18 1631.7 1297.91C1646.6 1302.87 1668.94 1317.77 1687.56 1337.01C1706.8 1355.63 1721.7 1377.97 1726.66 1392.87C1730.39 1406.52 1734.11 1422.66 1734.11 1428.25C1734.11 1438.18 1727.9 1439.42 1684.46 1439.42C1644.74 1439.42 1634.8 1437.56 1634.8 1430.11C1634.8 1425.14 1627.98 1413.97 1619.29 1405.28C1604.39 1390.39 1601.29 1389.77 1436.2 1389.77V1423.9C1436.2 1451.83 1438.68 1460.52 1451.71 1473.56C1466.61 1488.45 1470.95 1489.07 1536.74 1489.07C1575.22 1489.07 1618.05 1492.8 1631.7 1496.52C1646.6 1501.49 1668.94 1516.38 1687.56 1535.62C1706.8 1554.24 1721.7 1576.59 1726.66 1591.48C1730.39 1605.76 1734.11 1653.55 1734.11 1787H1585.15V1886.31H1485.85V1836.65C1485.85 1793.82 1484.61 1787 1475.3 1787C1469.09 1787 1452.95 1783.27 1439.3 1779.55C1424.4 1774.58 1402.06 1759.69 1383.44 1740.45C1364.2 1721.83 1349.3 1699.48 1344.34 1684.59C1340.61 1670.93 1336.89 1654.79 1336.89 1649.21C1336.89 1639.28 1343.1 1638.04 1386.54 1638.04C1426.26 1638.04 1436.2 1639.9 1436.2 1647.35C1436.2 1652.31 1443.02 1663.48 1451.71 1672.17C1466.61 1687.07 1469.71 1687.69 1634.8 1687.69V1653.55C1634.8 1625.62 1632.32 1616.93 1619.29 1603.9C1604.39 1589 1600.05 1588.38 1534.26 1588.38C1495.78 1588.38 1452.95 1584.66 1439.3 1580.93C1424.4 1575.97 1402.06 1561.07 1383.44 1541.83C1364.2 1523.21 1349.3 1500.87 1344.34 1485.97C1340.61 1471.69 1336.89 1423.9 1336.89 1290.46H1485.85Z" fill="#95C45A"/>
</svg>
