<svg width="3078" height="3077" viewBox="0 0 3078 3077" fill="none" xmlns="http://www.w3.org/2000/svg">
<path fill-rule="evenodd" clip-rule="evenodd" d="M544.061 0.0835657C599.368 -0.517512 618.606 1.8868 661.289 15.1105C689.544 23.5256 729.823 39.7547 751.465 51.1752C773.107 62.5956 806.172 83.6334 825.409 98.6603C844.045 113.687 873.503 142.539 890.937 163.577C907.77 184.013 933.62 224.887 947.447 254.94C961.274 284.994 976.904 327.671 990.13 393.188L2798.46 399.199L2837.53 413.024C2859.17 420.838 2891.64 436.466 2909.67 447.285C2927.71 458.105 2960.17 485.754 2981.81 507.994C3007.66 535.043 3028.7 564.495 3041.33 591.544C3052.75 614.385 3065.38 651.051 3069.58 672.689C3074.99 698.536 3078 758.042 3078 851.811C3078 963.01 3076.2 998.474 3068.38 1025.52C3062.97 1044.76 3049.14 1078.42 3038.32 1101.26C3026.9 1123.5 3002.25 1158.36 2982.41 1179.4C2963.18 1199.83 2930.11 1226.88 2909.07 1239.51C2888.03 1252.13 2853.16 1268.36 2792.44 1288.79L1094.13 1291.8L1091.13 1625.4L1073.09 1657.25C1062.87 1675.29 1046.04 1696.32 1035.22 1704.14C1025 1711.95 1004.56 1722.77 990.13 1727.58C970.291 1734.79 936.025 1736.6 697.359 1736.6V1841.79L737.638 1839.38C771.905 1838.18 783.327 1839.98 808.576 1852.6C824.808 1860.42 845.849 1875.45 854.866 1886.27C871.699 1904.9 872.3 1904.9 892.74 1895.88C904.162 1891.07 928.209 1886.87 945.042 1886.87C964.28 1886.87 987.725 1892.28 1003.96 1899.49C1018.99 1906.1 1040.03 1921.13 1070.09 1952.98L1097.14 1943.97C1112.17 1939.16 1131.41 1934.95 1140.42 1934.95C1150.04 1934.95 1168.08 1937.96 1181.3 1941.56C1194.53 1945.17 1216.17 1955.99 1229.4 1965.01C1243.22 1974.62 1261.26 1995.06 1289.51 2046.15L1291.32 2289.59C1292.52 2442.86 1290.72 2554.06 1286.51 2590.13C1282.9 2621.38 1271.48 2673.08 1260.66 2704.33C1250.44 2735.59 1229.4 2781.87 1214.37 2806.52C1199.34 2831.76 1173.49 2867.83 1157.26 2887.06C1140.42 2906.9 1112.77 2934.54 1064.07 2974.82H1385.7L1389.31 2931.54C1391.71 2906.9 1398.33 2876.84 1405.54 2863.62C1411.55 2850.39 1427.18 2830.56 1439.21 2820.34C1451.23 2809.52 1467.46 2798.1 1490.91 2788.48L1487.9 2184.4L1388.71 2181.39L1388.11 2064.18L1741.59 1757.03C1935.77 1588.73 2107.71 1440.27 2123.34 1428.24C2139.57 1416.22 2163.62 1403 2177.44 1399.39C2191.87 1395.79 2220.13 1393.38 2240.57 1393.38C2263.41 1393.98 2289.86 1398.79 2306.7 1406C2327.14 1414.42 2441.96 1509.99 3074.99 2058.77L3078 2181.39L2978.81 2184.4L2975.8 2788.48L2989.03 2792.69C2996.84 2795.09 3013.67 2806.52 3026.3 2817.94C3039.52 2829.96 3056.36 2853.4 3063.57 2869.63C3076.8 2896.68 3078 2908.1 3078 3077H0V2974.82H420.82L372.125 2928.53C343.269 2900.88 308.401 2859.41 287.36 2827.55C268.123 2798.1 244.076 2751.22 234.457 2724.17C224.237 2696.52 212.214 2650.84 207.404 2621.98C201.994 2589.53 198.387 2531.82 198.387 2472.92C198.387 2409.2 195.381 2365.32 189.97 2343.69C185.161 2325.65 163.519 2273.96 141.877 2229.48C107.61 2160.36 101.598 2143.53 102.199 2117.08C102.199 2099.65 106.407 2075 111.818 2062.98C116.627 2050.36 126.847 2033.53 134.061 2026.32C141.275 2018.5 156.906 2007.08 168.328 2001.07C179.75 1995.06 198.988 1988.45 210.41 1986.04C221.832 1984.24 248.885 1985.44 270.527 1989.05C292.17 1993.26 320.425 2001.67 333.65 2007.68C346.876 2013.69 366.715 2023.91 396.773 2043.15V1736.6L105.205 1733.59L76.3488 1717.36C60.7184 1707.75 40.8797 1690.31 31.2609 1678.29C22.2434 1665.67 12.0234 1646.44 7.81523 1634.41C2.40469 1618.79 0.601172 1502.78 0 1185.41C0 761.048 0 756.84 12.6246 734.6C19.2375 721.978 32.4633 703.945 40.8797 694.328C49.8973 685.312 67.3312 670.886 102.199 648.646V515.207C102.199 416.63 104.604 370.948 111.818 342.097C116.627 320.458 132.258 278.984 146.686 248.93C165.923 208.658 184.56 182.21 217.023 147.348C241.671 121.501 278.944 88.442 300.586 74.6172C322.228 60.1913 350.483 43.9622 363.709 37.9515C376.935 32.5418 408.196 21.7224 432.844 13.9084C466.509 4.29111 494.163 0.684643 544.061 0.0835657V0.0835657ZM352.287 158.768C332.448 171.992 303.592 197.838 287.36 215.87C271.129 233.903 250.088 263.957 240.469 281.989C230.85 300.021 217.624 336.687 210.41 363.134C200.19 403.407 198.387 429.854 198.387 527.229V642.636H300.586L303.592 381.167C333.65 318.054 354.09 288.601 367.917 274.175C382.345 259.749 405.791 241.116 420.82 232.1C435.85 223.684 465.307 211.663 486.949 206.253C514.603 199.04 538.049 197.237 568.107 200.242C596.964 202.647 622.213 209.259 647.462 221.881C668.503 231.498 699.163 252.536 715.996 268.765C732.829 284.393 752.667 307.835 760.482 321.059C767.696 334.283 778.518 360.129 783.928 378.161C791.142 403.407 793.547 437.668 793.547 527.229V642.636H895.746C892.139 415.428 889.133 379.965 880.717 354.118C875.306 336.086 860.878 302.426 848.855 278.984C836.23 254.94 810.981 221.881 790.541 200.843C769.5 180.407 735.834 155.162 712.389 142.539C688.943 130.517 654.075 116.092 634.236 111.283C613.195 105.873 574.119 101.666 541.055 101.666C494.764 101.666 474.926 105.272 435.85 118.496C409.398 127.512 371.524 145.544 352.287 158.768ZM446.07 337.889C434.647 348.709 420.219 367.943 413.005 381.167C400.982 403.407 399.779 415.428 397.976 524.223L396.773 642.636H697.359C694.354 438.87 691.949 406.412 684.735 390.183C679.324 378.762 667.301 359.528 657.081 348.108C647.462 336.687 626.421 321.059 611.392 313.846C590.952 303.628 572.316 300.021 545.263 300.021C524.823 300.622 498.371 304.83 486.949 309.639C475.527 314.447 456.891 327.07 446.07 337.889V337.889ZM991.934 651.652C1025.6 670.285 1044.84 686.514 1056.26 699.738C1067.68 712.962 1080.31 737.606 1085.72 753.835C1092.33 777.878 1094.13 825.964 1094.13 987.053V1189.62L2792.44 1186.61C2848.35 1160.16 2876.61 1142.73 2891.04 1130.71C2905.46 1118.69 2924.7 1097.65 2933.72 1084.43C2942.74 1071.2 2955.96 1044.16 2963.18 1024.32C2975.8 990.059 2976.4 980.441 2974.6 831.975L2972.79 675.695C2945.74 619.795 2922.3 588.539 2904.26 569.905C2885.63 551.873 2854.36 528.431 2834.53 518.814L2798.46 501.382L991.934 498.377V651.652ZM101.598 769.463C102.199 1451.69 104.604 1608.57 108.211 1616.38C111.818 1622.99 124.443 1630.81 137.067 1634.41C149.692 1637.42 212.815 1640.42 278.343 1640.42H396.773V1294.8C351.686 1247.92 331.847 1220.27 322.829 1202.84C313.812 1185.41 303.592 1152.95 299.985 1130.71C293.973 1098.85 293.973 1081.42 299.985 1048.36C304.193 1024.92 316.216 990.66 327.038 970.824C337.257 951.589 358.9 923.339 374.53 908.913C390.161 894.487 421.422 874.05 443.665 863.231C480.336 845.8 489.354 843.997 541.055 843.997C579.53 843.997 608.386 847.002 628.225 854.215C645.057 859.625 674.515 875.854 694.354 890.28C714.192 904.705 739.441 929.951 750.263 946.18C761.084 962.409 775.512 990.66 782.726 1009.29C790.541 1030.93 794.749 1057.38 795.35 1087.43C795.35 1115.08 791.142 1145.14 784.529 1165.57C779.119 1183.61 764.089 1213.06 752.066 1231.09C740.644 1249.12 723.21 1269.56 714.192 1277.37L697.359 1291.8C697.359 1443.27 697.359 1521.41 697.359 1563.49V1640.42L963.077 1637.42L991.934 1604.36V774.873L961.875 744.819C138.871 744.819 134.061 744.819 117.83 756.84L101.598 769.463ZM497.169 1517.8L499.574 2379.75H397.375C397.375 2251.72 394.369 2217.46 388.357 2199.43C383.548 2184.4 367.917 2159.15 354.09 2142.93C339.662 2126.7 318.02 2108.66 305.395 2102.65C293.372 2096.04 272.932 2089.43 260.307 2087.63C248.284 2085.22 230.85 2085.22 221.231 2087.63C211.011 2090.03 203.797 2096.04 201.393 2105.06C198.988 2114.07 211.011 2144.73 239.266 2202.43C262.111 2248.72 283.753 2301.61 288.562 2319.64C292.771 2338.28 298.181 2412.21 300.586 2487.94C304.794 2612.97 306.598 2626.79 321.627 2671.27C330.645 2697.72 349.281 2738.59 362.507 2761.43C376.334 2784.88 406.993 2822.74 429.838 2846.19C453.284 2869.03 491.157 2899.68 514.603 2912.91C537.448 2926.73 578.327 2945.36 604.779 2954.38C643.254 2967.6 667.301 2971.21 725.013 2973.61C780.321 2976.02 807.975 2974.22 845.248 2965.8C871.699 2959.79 916.186 2943.56 944.441 2929.13C972.696 2914.71 1010.57 2890.67 1029.21 2874.44C1047.84 2858.81 1075.5 2830.56 1090.53 2812.53C1105.56 2794.49 1127.2 2762.04 1138.62 2740.4C1150.04 2718.76 1166.27 2682.69 1173.49 2659.25C1187.31 2618.38 1187.31 2609.96 1189.72 2343.69C1191.52 2075 1191.52 2070.19 1179.5 2053.97C1169.88 2040.74 1161.46 2037.14 1144.03 2037.14C1128.4 2037.14 1117.58 2040.74 1108.56 2050.36C1095.34 2064.18 1094.73 2067.19 1094.73 2222.27V2379.75H992.535C992.535 2016.7 992.535 2016.1 979.309 2003.48C971.494 1996.26 959.47 1989.05 951.655 1986.65C944.441 1984.84 931.215 1986.65 921.597 1991.45C912.579 1995.66 903.561 2004.08 900.555 2009.49C898.151 2014.9 896.347 2100.25 896.347 2199.43V2379.75H794.148C794.148 2062.98 792.345 1966.81 789.339 1961.4C786.934 1955.99 777.916 1947.58 768.298 1943.37C759.28 1938.56 746.655 1934.95 739.441 1934.95C732.829 1934.95 720.805 1941.56 712.389 1949.98L697.961 1965.01V2379.75H595.761V1520.21C570.512 1494.96 559.09 1490.16 545.864 1490.16C532.638 1490.16 520.615 1494.96 511.597 1503.98L497.169 1517.8ZM1855.82 1788.89C1674.86 1945.17 1526.98 2075.6 1526.98 2079.21C1526.98 2082.82 1554.63 2085.22 1597.91 2085.22H1668.25C2104.1 1689.11 2233.95 1575.51 2238.16 1576.71C2242.37 1578.51 2369.82 1693.32 2521.92 1832.17L2798.46 2084.62C2908.47 2085.22 2940.93 2082.82 2942.14 2080.41C2943.34 2078.01 2796.05 1947.58 2614.5 1790.69C2432.94 1633.81 2278.44 1501.58 2271.23 1497.97C2263.41 1493.76 2246.58 1490.76 2233.35 1490.76C2220.13 1490.76 2203.9 1493.76 2196.68 1497.97C2189.47 1501.58 2036.17 1632.61 1855.82 1788.89V1788.89ZM1826.96 2079.81C1827.56 2082.82 1902.11 2085.22 2001.9 2085.22C2098.09 2085.22 2176.24 2082.82 2176.24 2080.41C2176.24 2078.01 2163.62 2067.79 2147.99 2058.17C2129.35 2046.15 2114.32 2029.32 2102.3 2007.08C2087.87 1980.63 2084.26 1966.81 2084.26 1937.96C2084.26 1915.12 2088.47 1891.67 2096.29 1874.84C2102.9 1859.82 2119.13 1837.58 2131.76 1824.96C2145.58 1811.73 2168.43 1797.91 2185.26 1792.5C2206.9 1785.89 2226.14 1784.08 2251.39 1786.49C2273.03 1788.89 2297.68 1796.1 2311.51 1804.52C2324.73 1812.33 2344.57 1830.97 2355.39 1845.39C2366.21 1859.82 2378.24 1885.06 2381.84 1901.89C2387.25 1924.13 2387.25 1940.36 2381.84 1965.01C2378.24 1983.04 2366.81 2009.49 2357.19 2023.31C2346.98 2037.74 2328.34 2055.17 2315.11 2062.38C2301.89 2070.19 2291.07 2078.01 2291.07 2080.41C2291.07 2082.82 2369.22 2085.22 2464.8 2085.22C2560.99 2085.22 2640.35 2082.82 2641.55 2080.41C2642.75 2078.01 2553.18 1993.86 2441.96 1892.88C2331.34 1791.9 2238.76 1708.95 2236.96 1707.75C2234.56 1707.14 2141.37 1788.89 2029.56 1890.47C1917.74 1991.45 1826.36 2076.81 1826.96 2079.81V2079.81ZM1586.49 2483.14L1587.09 2776.46H1689.29V2181.39C1616.55 2181.39 1593.11 2183.2 1590.1 2185.6C1587.69 2187.41 1585.89 2321.45 1586.49 2483.14ZM1784.88 2487.34L1785.48 2785.48C1808.93 2796.9 1825.76 2808.92 1837.78 2819.74C1849.81 2830.56 1864.84 2850.39 1871.45 2863.62C1878.66 2877.44 1885.27 2905.69 1887.68 2930.94L1890.69 2974.82H1983.87C1983.87 2930.34 1988.08 2903.89 1992.88 2887.66C1997.69 2870.83 2010.92 2846.79 2021.74 2833.56C2033.16 2820.34 2052.4 2804.71 2064.42 2798.7L2086.07 2788.48V2181.39C1859.42 2181.39 1791.49 2183.2 1788.49 2185.6C1786.08 2187.41 1784.28 2323.25 1784.88 2487.34V2487.34ZM2181.65 2483.14L2182.25 2776.46H2284.45V2181.39C2211.71 2181.39 2188.27 2183.2 2185.26 2185.6C2182.86 2187.41 2181.05 2321.45 2181.65 2483.14ZM2380.04 2487.34L2380.64 2785.48C2404.09 2796.9 2420.92 2808.92 2432.94 2819.74C2444.97 2830.56 2460 2850.39 2466.61 2863.62C2473.82 2877.44 2480.44 2905.69 2482.84 2930.94L2485.85 2974.82H2576.02C2582.63 2911.7 2588.04 2884.05 2592.85 2872.63C2597.66 2861.21 2609.69 2842.58 2618.7 2831.16C2628.32 2819.74 2646.36 2805.91 2658.98 2799.9L2681.23 2788.48V2181.39C2454.58 2181.39 2386.65 2183.2 2383.65 2185.6C2381.24 2187.41 2379.44 2323.25 2380.04 2487.34V2487.34ZM2776.81 2483.14L2777.41 2776.46H2879.61V2181.39C2806.87 2181.39 2783.43 2183.2 2780.42 2185.6C2778.02 2187.41 2776.21 2321.45 2776.81 2483.14ZM1491.51 2941.16L1490.91 2974.82H1785.48C1785.48 2914.71 1783.08 2905.69 1770.45 2893.67C1756.02 2878.64 1755.42 2878.64 1638.19 2878.64C1521.57 2878.64 1520.36 2878.64 1505.94 2893.07C1494.51 2905.09 1491.51 2914.71 1491.51 2941.16V2941.16ZM2086.67 2941.16L2086.07 2974.82H2380.64C2380.64 2914.71 2378.24 2905.69 2365.61 2893.67C2351.18 2878.64 2350.58 2878.64 2233.35 2878.64C2116.73 2878.64 2115.52 2878.64 2101.1 2893.07C2089.67 2905.09 2086.67 2914.71 2086.67 2941.16ZM2681.83 2941.16L2681.23 2974.82H2975.8C2975.8 2906.29 2974.6 2901.49 2959.57 2890.67C2944.54 2879.25 2934.32 2878.04 2827.31 2878.64C2711.89 2878.64 2710.68 2878.64 2696.26 2893.07C2684.83 2905.09 2681.83 2914.71 2681.83 2941.16Z" fill="#95C45A"/>
<path d="M424.428 872.848C444.267 862.029 470.718 850.608 483.944 847.603C497.17 843.996 529.633 842.193 556.085 843.395C586.143 844.597 616.202 850.608 637.243 858.422C655.278 865.635 683.533 881.864 700.366 893.886C716.597 906.508 739.442 930.552 750.263 946.781C761.084 963.01 775.512 991.26 782.125 1009.29C790.542 1031.53 794.75 1057.38 794.75 1087.43C795.351 1115.08 791.143 1145.14 784.53 1165.57C778.518 1183.61 764.09 1213.06 752.067 1231.09C740.043 1249.12 723.21 1270.16 697.36 1291.8L696.158 1517.2L684.735 1487.15C678.122 1470.92 664.296 1448.08 653.474 1437.26C643.254 1425.84 623.416 1411.41 610.19 1404.2C593.357 1395.79 574.12 1391.58 547.067 1391.58C514.604 1390.98 502.58 1393.98 476.129 1409.01C458.094 1419.23 436.451 1436.66 428.035 1448.08C419.619 1459.5 409.399 1478.73 405.19 1490.15C398.578 1508.19 397.375 1497.37 396.173 1294.8L367.317 1264.75C351.686 1248.52 331.847 1221.47 322.83 1204.64C314.413 1188.41 304.194 1155.35 299.985 1132.51C293.974 1099.45 293.974 1082.02 299.384 1050.17C303.592 1027.33 313.812 994.867 322.83 978.037C331.246 960.605 349.883 934.158 363.71 919.131C377.537 904.104 405.19 883.668 424.428 872.848Z" fill="#B8EB86"/>
<path d="M2131.76 1824.96C2144.38 1812.33 2166.02 1798.51 2179.25 1793.7C2193.68 1788.29 2218.93 1785.88 2242.37 1786.49C2270.63 1787.69 2288.66 1792.5 2308.5 1803.92C2323.53 1812.33 2344.57 1830.97 2355.39 1845.39C2366.81 1861.02 2377.64 1885.06 2381.84 1904.9C2386.65 1929.54 2386.65 1945.17 2381.84 1968.01C2378.24 1984.24 2366.81 2009.49 2356.59 2023.31C2346.98 2037.14 2327.14 2055.17 2313.31 2064.18C2296.48 2073.8 2274.84 2080.41 2251.39 2082.82C2231.55 2085.22 2204.5 2083.42 2191.27 2080.41C2178.05 2076.81 2156.4 2065.99 2143.18 2056.37C2129.35 2046.75 2111.92 2025.11 2101.7 2006.48C2087.87 1981.24 2084.26 1966.21 2084.26 1937.96C2084.26 1915.12 2088.47 1892.28 2095.69 1874.84C2102.3 1859.82 2118.53 1837.58 2131.76 1824.96Z" fill="#B8EB86"/>
<path d="M1388.71 723.781V659.466V594.549H1490.91V723.781L1581.08 633.619L1650.22 702.743L1560.04 792.905H1689.29V895.088H1560.04L1650.22 985.25L1581.08 1054.37L1490.91 964.212L1487.9 1090.44L1388.71 1093.44V964.212L1298.53 1054.37L1229.4 985.25L1316.57 895.088H1190.32V792.905H1319.57L1229.4 702.743L1298.53 633.619L1388.71 723.781Z" fill="#95C45A"/>
<path d="M1983.87 724.382V659.466V595.15H2086.07V724.382L2176.24 634.22L2245.38 702.743L2155.2 793.506H2284.45V895.689L2155.2 895.088L2245.38 985.851L2176.24 1054.97L2086.07 964.813V1094.04L1986.87 1091.04L1983.87 964.813L1893.69 1054.97L1824.56 985.851L1914.73 895.689L1788.49 892.684L1785.48 793.506H1914.73L1824.56 702.743L1893.69 634.22L1983.87 724.382Z" fill="#95C45A"/>
<path d="M2579.03 723.781V659.466V594.549H2681.23V723.781L2771.4 633.619L2840.54 702.743L2750.36 792.905H2879.61V895.088H2750.36L2840.54 985.25L2771.4 1054.37L2681.23 964.212V1093.44L2582.03 1090.44L2578.43 964.212L2488.85 1054.37L2419.72 985.25L2509.89 895.088L2383.65 892.083L2380.64 792.905H2509.89L2419.72 702.743L2488.85 633.619L2579.03 723.781Z" fill="#95C45A"/>
<path d="M157.507 816.347C161.715 810.937 170.732 803.724 177.345 800.118C183.958 795.91 197.184 794.708 207.404 795.91C217.023 797.714 230.248 805.528 236.26 812.74C242.272 819.953 246.48 834.379 246.48 844.598C245.879 854.215 242.873 866.837 238.665 872.247C234.457 877.657 223.636 885.471 214.618 889.077C205.6 892.684 193.577 893.886 187.565 891.482C182.155 889.077 171.334 881.864 163.518 875.253C155.102 867.439 149.691 855.417 149.691 844.598C149.691 834.379 153.298 821.757 157.507 816.347Z" fill="#95C45A"/>
<path d="M845.849 831.374C848.253 822.358 857.271 810.336 865.086 804.325C872.901 798.315 885.526 793.506 893.341 793.506C901.156 793.506 915.584 801.32 925.804 811.538C935.423 821.156 943.84 835.581 943.84 842.794C943.84 850.007 940.232 862.63 935.423 870.444C930.614 877.657 919.191 886.673 909.573 890.28C897.549 894.487 887.93 893.886 875.306 887.875C865.687 883.668 854.265 872.848 849.456 863.832C844.646 853.614 843.444 841.592 845.849 831.374Z" fill="#95C45A"/>
<path d="M150.293 1538.24C150.293 1527.42 156.304 1514.2 165.322 1505.18C174.339 1496.17 186.363 1490.76 197.785 1490.76C209.207 1490.76 221.832 1496.17 231.451 1505.78C240.468 1514.8 246.48 1527.42 246.48 1538.84C246.48 1549.66 240.468 1562.28 231.451 1571.9C222.433 1580.92 209.809 1586.93 198.386 1586.93C186.964 1586.93 174.339 1580.92 165.322 1571.9C155.703 1561.68 150.293 1550.26 150.293 1538.24Z" fill="#95C45A"/>
<path d="M844.646 1538.84C844.646 1528.62 850.658 1514.8 859.074 1505.78C868.693 1496.17 880.115 1490.16 892.139 1490.16C902.359 1490.16 917.388 1494.96 925.804 1501.58C937.227 1510.59 940.834 1519.01 940.834 1538.84C940.834 1558.08 937.227 1566.49 925.804 1575.51C917.388 1582.12 902.359 1586.93 892.74 1586.93C881.318 1586.93 869.294 1581.52 859.675 1571.3C850.658 1562.28 844.646 1548.46 844.646 1538.84Z" fill="#95C45A"/>
</svg>
